SplineFontDB: 3.0
FontName: Besley-it-Fatface
FullName: Besley* Fatface
FamilyName: Besley* Fatface
Weight: Fatface
Copyright: Copyright (c) 2017, Owen Earl,,, (EwonRael@yahoo.com)
Version: 001.1
ItalicAngle: 0
UnderlinePosition: -100
UnderlineWidth: 50
Ascent: 800
Descent: 200
InvalidEm: 0
LayerCount: 2
Layer: 0 0 "Back" 1
Layer: 1 0 "Fore" 0
XUID: [1021 31 -699969567 16487490]
FSType: 0
OS2Version: 0
OS2_WeightWidthSlopeOnly: 0
OS2_UseTypoMetrics: 1
CreationTime: 1460762150
ModificationTime: 1500516916
PfmFamily: 17
TTFWeight: 900
TTFWidth: 5
LineGap: 100
VLineGap: 0
OS2TypoAscent: 800
OS2TypoAOffset: 0
OS2TypoDescent: -200
OS2TypoDOffset: 0
OS2TypoLinegap: 100
OS2WinAscent: 900
OS2WinAOffset: 0
OS2WinDescent: 300
OS2WinDOffset: 0
HheadAscent: 900
HheadAOffset: 0
HheadDescent: -200
HheadDOffset: 0
OS2CapHeight: 700
OS2XHeight: 460
OS2FamilyClass: 1024
OS2Vendor: 'PfEd'
OS2UnicodeRanges: 00000001.00000000.00000000.00000000
Lookup: 5 0 0 "'calt' Contextual Alternates lookup 1" { "'calt' Contextual Alternates lookup 1-1"  } ['calt' ('DFLT' <'dflt' > 'grek' <'dflt' > 'latn' <'dflt' > ) ]
Lookup: 1 0 0 "'ss01' Style Set 1 lookup 2" { "'ss01' Style Set 1 lookup 2-1"  } ['ss01' ('DFLT' <'dflt' > 'grek' <'dflt' > 'latn' <'dflt' > ) ]
Lookup: 4 0 1 "'liga' Standard Ligatures lookup 0" { "Not your mama's contextual ligatures"  } ['liga' ('DFLT' <'dflt' > 'grek' <'dflt' > 'latn' <'dflt' > ) ]
Lookup: 258 0 0 "Kern like there's no tomorrow" { "Get it right" [150,0,5] } ['kern' ('DFLT' <'dflt' > 'grek' <'dflt' > 'latn' <'dflt' > ) ]
MarkAttachClasses: 1
DEI: 91125
KernClass2: 21 21 "Get it right"
 1 A
 7 B R C N
 3 D O
 7 E H I Z
 5 F P Y
 3 K X
 3 Q M
 3 V W
 9 a h m n u
 9 b e o p c
 1 q
 7 d j l i
 3 k x
 11 r v w y g G
 68 quotedbl quotesingle quoteleft quoteright quotedblleft quotedblright
 1 f
 1 t
 1 T
 1 L
 3 U J
 3 A J
 31 B D E F H I K L M N P R uniFFFD
 7 C G O Q
 3 S Z
 3 V W
 1 U
 1 X
 1 Y
 5 a g s
 7 b h k l
 9 c d e o q
 3 f i
 5 p t u
 5 m n r
 3 v w
 1 z

StartChar: ampersand
Encoding: 38 38 0
Width: 920
Flags: HMW
LayerCount: 2
Back
SplineSet
745 405 m 5
 715 182 523 -20 290 -20 c 4
 127 -20 1 57 1 200 c 5
 191 220 l 5
 191 138 251 85 325 85 c 4
 499 85 630 243 650 405 c 5
 745 405 l 5
565 460 m 5
 815 460 l 5
 815 365 l 5
 565 365 l 5
 565 460 l 5
1 200 m 5
 1 490 462 385 462 615 c 5
 626 625 l 5
 626 385 191 460 191 220 c 5
 1 200 l 5
600 95 m 5
 810 95 l 5
 810 0 l 5
 600 0 l 5
 600 95 l 5
746 0 m 5
 546 0 l 5
 195 490 l 6
 170 529 149 568 149 603 c 4
 149 693 244 770 400 770 c 4
 547 770 626 705 626 625 c 5
 462 615 l 5
 462 652 444 700 399 700 c 4
 352 700 327 668 327 625 c 4
 327 590 351.689730911 554.11489986 395 490 c 6
 746 0 l 5
EndSplineSet
Fore
SplineSet
785 405 m 1
 745 202 553 -20 280 -20 c 0
 107 -20 1 57 1 200 c 1
 231 220 l 1
 231 148 271 108 335 108 c 4
 509 108 640 263 670 405 c 1
 785 405 l 1
585 460 m 1
 855 460 l 1
 855 345 l 1
 585 345 l 1
 585 460 l 1
1 200 m 1
 1 490 462 405 462 615 c 1
 666 625 l 1
 666 385 231 430 231 220 c 1
 1 200 l 1
620 115 m 1
 860 115 l 1
 860 0 l 1
 620 0 l 1
 620 115 l 1
796 0 m 1
 546 0 l 1
 195 490 l 2
 170 529 149 568 149 603 c 0
 149 713 264 770 420 770 c 0
 567 770 666 715 666 625 c 1
 462 615 l 1
 462 642 454 680 419 680 c 0
 392 680 367 658 367 625 c 0
 367 590 401.689453125 554.115234375 445 490 c 2
 796 0 l 1
EndSplineSet
EndChar

StartChar: period
Encoding: 46 46 1
Width: 320
Flags: HMW
LayerCount: 2
Fore
SplineSet
40 100 m 0
 40 166 94 220 160 220 c 0
 226 220 280 166 280 100 c 0
 280 34 226 -20 160 -20 c 0
 94 -20 40 34 40 100 c 0
EndSplineSet
EndChar

StartChar: zero
Encoding: 48 48 2
Width: 570
Flags: HMW
LayerCount: 2
Fore
SplineSet
240 280 m 4
 240 128 251 85 285 85 c 0
 319 85 330 128 330 280 c 0
 330 432 319 475 285 475 c 0
 251 475 240 432 240 280 c 4
25 280 m 0
 25 473 122 580 285 580 c 0
 458 580 545 473 545 280 c 0
 545 87 438 -20 285 -20 c 0
 122 -20 25 87 25 280 c 0
EndSplineSet
EndChar

StartChar: one
Encoding: 49 49 3
Width: 570
VWidth: 1155
Flags: HMW
LayerCount: 2
Fore
SplineSet
62 465 m 17
 178 465 280 468 330 590 c 13
 330 465 l 5
 62 465 l 17
330 465 m 5
 330 590 l 5
 415 590 l 5
 415 465 l 5
 330 465 l 5
62 465 m 1
 415 465 l 5
 415 345 l 5
 62 345 l 1
 62 465 l 1
45 130 m 1
 190 130 l 5
 190 0 l 5
 45 0 l 1
 45 130 l 1
415 130 m 5
 540 130 l 1
 540 0 l 1
 415 0 l 5
 415 130 l 5
190 405 m 5
 415 405 l 5
 415 0 l 5
 190 0 l 5
 190 405 l 5
EndSplineSet
EndChar

StartChar: two
Encoding: 50 50 4
Width: 570
VWidth: 1155
Flags: HMW
LayerCount: 2
Fore
SplineSet
550 217 m 1
 550 72 499 -40 370 -40 c 0
 263 -40 258 30 185 30 c 0
 144 30 114 10 104 -20 c 1
 50 -20 l 1
 60 74 167 177 260 177 c 0
 320 177 340 143 386 143 c 0
 429 143 463 165 463 217 c 1
 550 217 l 1
180 476 m 1
 180 461 267 474 267 378 c 0
 267 331 214 280 147 280 c 4
 78 280 31 318 31 396 c 1
 180 476 l 1
31 396 m 1
 31 508 160 580 282 580 c 0
 423 580 538 530 538 400 c 1
 317 410 l 1
 317 454 291 498 222 498 c 0
 198 498 180 486 180 476 c 1
 31 396 l 1
217 261 m 0
 299.8359375 294.935546875 317 346 317 410 c 1
 538 400 l 1
 538 300 445.857421875 250.379882812 252 196 c 0
 144.517578125 165.849609375 94 90 94 -20 c 1
 25 -20 l 1
 25 127 98.3209355204 212.3805351 217 261 c 0
EndSplineSet
EndChar

StartChar: three
Encoding: 51 51 5
Width: 570
VWidth: 1155
Flags: HMW
LayerCount: 2
Fore
SplineSet
545 50 m 1
 324 50 l 1
 324 124 306 196 217 196 c 1
 217 245 l 1
 458 245 545 180 545 50 c 1
35 412 m 1
 35 504 124 580 276 580 c 0
 427 580 525 521 525 401 c 1
 304 401 l 1
 304 475 265 498 236 498 c 0
 202 498 174 484 174 468 c 1
 35 412 l 1
174 468 m 1
 174 450 246 450 246 384 c 4
 246 327 201 296 144 296 c 0
 85 296 35 344 35 412 c 1
 174 468 l 1
15 -1 m 1
 174 -61 l 1
 174 -78 187 -88 216 -88 c 0
 275 -88 324 -34 324 50 c 1
 545 50 l 1
 545 -90 427 -170 236 -170 c 0
 74 -170 15 -93 15 -1 c 1
174 -61 m 1
 15 -1 l 1
 15 72 70 125 129 125 c 0
 186 125 236 94 236 27 c 0
 236 -39 174 -38 174 -61 c 1
217 226 m 1
 217 275 l 1
 296 275 304 337 304 401 c 1
 525 401 l 1
 525 291 458 226 217 226 c 1
EndSplineSet
EndChar

StartChar: four
Encoding: 52 52 6
Width: 570
VWidth: 1155
Flags: HMW
LayerCount: 2
Fore
SplineSet
265 219 m 1
 480 199 l 1
 480 -150 l 1
 265 -150 l 1
 265 219 l 1
123 125 m 1
 25 125 l 1
 95 345 235 390 235 560 c 5
 463 560 l 1
 463 350 193 345 123 125 c 1
60 145 m 1
 550 145 l 1
 550 45 l 1
 60 45 l 1
 60 145 l 1
25 125 m 1
 60 125 l 1
 60 45 l 1
 25 45 l 1
 25 125 l 1
265 -40 m 1
 265 -150 l 1
 180 -150 l 1
 180 -40 l 1
 265 -40 l 1
555 -40 m 1
 555 -150 l 1
 480 -150 l 1
 480 -40 l 1
 555 -40 l 1
425 199 m 1
 415 370 l 1
 480 370 l 1
 480 199 l 1
 425 199 l 1
265 219 m 1
 330 250 395 276 415 370 c 9
 425 199 l 1
 265 219 l 1
EndSplineSet
EndChar

StartChar: five
Encoding: 53 53 7
Width: 570
VWidth: 1155
Flags: HMW
LayerCount: 2
Fore
SplineSet
189 565 m 1
 147 177 l 1
 42 177 l 1
 84 565 l 1
 189 565 l 1
545 80 m 1
 324 60 l 1
 324 194 285 211 246 211 c 0
 223 211 194 205 151 177 c 1
 62 177 l 1
 113 254 177 310 288 310 c 0
 439 310 545 230 545 80 c 1
15 9 m 1
 183 -42 l 1
 183 -60 202 -73 226 -73 c 0
 275 -73 324 -44 324 60 c 1
 545 80 l 1
 545 -80 407 -165 226 -165 c 0
 74 -165 15 -73 15 9 c 1
183 -42 m 1
 15 9 l 1
 15 87 65 150 144 150 c 0
 211 150 247 104 247 47 c 0
 247 -31 183 -9 183 -42 c 1
104 365 m 5
 84 565 l 1
 227 565 l 2
 351 565 393 556 430 607 c 1
 505 607 l 1
 498 495 l 2
 489.138124696 353.209995136 422 365 185 365 c 6
 104 365 l 5
EndSplineSet
EndChar

StartChar: six
Encoding: 54 54 8
Width: 570
VWidth: 1155
Flags: HMW
LayerCount: 2
Fore
SplineSet
550 581 m 1
 363 636 l 1
 363 649 343 658 314 658 c 0
 245 658 240 504 240 340 c 5
 20 350 l 1
 20 550 133 730 324 730 c 0
 456 730 550 673 550 581 c 1
363 636 m 1
 550 581 l 1
 550 503 495 465 436 465 c 4
 379 465 329 496 329 563 c 0
 329 609 363 623 363 636 c 1
550 220 m 5
 330 220 l 5
 330 334 318 366 289 366 c 4
 256 366 240 330 240 250 c 5
 206 250 l 5
 206 357 195 455 326 455 c 4
 457 455 550 370 550 220 c 5
550 220 m 5
 550 100 460 -20 279 -20 c 0
 98 -20 20 110 20 350 c 1
 240 340 l 5
 240 250 l 6
 240 146 235 70 284 70 c 0
 323 70 330 136 330 220 c 5
 550 220 l 5
EndSplineSet
EndChar

StartChar: seven
Encoding: 55 55 9
Width: 580
VWidth: 1155
Flags: HMW
LayerCount: 2
Fore
SplineSet
30 313 m 5
 30 458 51 590 180 590 c 4
 297 590 312 525 385 525 c 4
 426 525 466 540 476 570 c 5
 555 570 l 5
 535 496 393 343 300 343 c 4
 240 343 230 387 184 387 c 4
 151 387 117 365 117 313 c 5
 30 313 l 5
329 106 m 1
 329 53 392 54 392 -42 c 0
 392 -109 338 -160 264 -160 c 0
 196 -160 139 -113 139 -24 c 1
 329 106 l 1
368 198 m 0
 329.706577443 138.99582127 329 110 329 106 c 1
 139 -24 l 1
 139 55 189.100585938 123.419921875 259 211 c 0
 346.837890625 321.056640625 476 520 476 570 c 1
 554 570 l 1
 554 503 460.812998305 341.010323311 368 198 c 0
EndSplineSet
EndChar

StartChar: eight
Encoding: 56 56 10
Width: 570
VWidth: 1155
Flags: HMW
LayerCount: 2
Fore
SplineSet
245 530 m 0
 245 456 256 405 285 405 c 0
 314 405 325 456 325 530 c 0
 325 604 314 645 285 645 c 0
 256 645 245 604 245 530 c 0
50 530 m 0
 50 640 144 730 285 730 c 0
 426 730 520 640 520 530 c 0
 520 420 416 355 285 355 c 0
 154 355 50 420 50 530 c 0
235 190 m 0
 235 106 256 60 285 60 c 4
 314 60 335 106 335 190 c 0
 335 274 314 328 285 328 c 0
 256 328 235 274 235 190 c 0
30 180 m 0
 30 300 134 375 285 375 c 0
 436 375 540 300 540 180 c 0
 540 60 456 -20 285 -20 c 0
 114 -20 30 60 30 180 c 0
EndSplineSet
EndChar

StartChar: A
Encoding: 65 65 12
Width: 990
Flags: HMW
LayerCount: 2
Fore
SplineSet
605 765 m 1
 605 659 l 1
 421 659 l 1
 421 765 l 1
 605 765 l 1
240 335 m 1
 720 335 l 1
 720 210 l 1
 240 210 l 1
 240 335 l 1
480 135 m 1
 970 135 l 1
 970 0 l 1
 480 0 l 1
 480 135 l 1
20 135 m 1
 370 135 l 5
 370 0 l 5
 20 0 l 1
 20 135 l 1
395 685 m 1
 605 765 l 1
 910 0 l 1
 640 0 l 1
 395 685 l 1
406 765 m 1
 540 765 l 1
 224 0 l 1
 80 0 l 1
 406 765 l 1
EndSplineSet
EndChar

StartChar: B
Encoding: 66 66 13
Width: 860
Flags: HMW
LayerCount: 2
Fore
SplineSet
450 455 m 1
 511 455 550 481 550 540 c 0
 550 599 521 615 450 615 c 1
 460 750 l 1
 691 750 790 705 790 565 c 0
 790 435 671 380 460 380 c 1
 450 455 l 1
140 750 m 1
 375 750 l 1
 375 0 l 1
 140 0 l 1
 140 750 l 1
30 750 m 1
 140 750 l 1
 140 615 l 1
 30 615 l 1
 30 750 l 1
30 135 m 1
 140 135 l 1
 140 0 l 1
 30 0 l 1
 30 135 l 1
290 455 m 1
 500 455 l 1
 500 320 l 1
 290 320 l 1
 290 455 l 1
290 750 m 1
 460 750 l 5
 450 615 l 5
 290 615 l 1
 290 750 l 1
290 135 m 1
 470 135 l 1
 490 0 l 1
 290 0 l 1
 290 135 l 1
470 135 m 1
 556 135 580 176 580 235 c 0
 580 294 536 320 470 320 c 1
 490 395 l 1
 701 395 830 340 830 210 c 0
 830 50 731 0 490 0 c 1
 470 135 l 1
EndSplineSet
EndChar

StartChar: C
Encoding: 67 67 14
Width: 875
Flags: HMW
LayerCount: 2
Back
SplineSet
305 375 m 4
 305 213 351 110 465 110 c 4
 589 110 625 213 625 375 c 4
 625 537 579 640 465 640 c 4
 351 640 305 537 305 375 c 4
45 375 m 4
 45 608 202 770 465 770 c 4
 728 770 885 608 885 375 c 4
 885 142 718 -20 465 -20 c 4
 202 -20 45 142 45 375 c 4
EndSplineSet
Fore
SplineSet
610 640 m 17
 700 755 l 9
 700 550 l 1
 610 640 l 17
680 465 m 1
 700 755 l 1
 815 755 l 1
 815 465 l 1
 680 465 l 1
755 465 m 1
 660 465 l 1
 640 567 594 642 480 642 c 0
 376 642 305 547 305 375 c 1
 45 375 l 1
 45 598 222 770 465 770 c 0
 678 770 755 568 755 465 c 1
835 295 m 1
 825 112 703 -20 470 -20 c 0
 217 -20 45 132 45 375 c 1
 305 375 l 1
 305 203 376 114 490 114 c 4
 594 114 672 183 680 295 c 1
 835 295 l 1
EndSplineSet
EndChar

StartChar: D
Encoding: 68 68 15
Width: 935
Flags: HMW
LayerCount: 2
Fore
SplineSet
30 135 m 1
 140 135 l 1
 140 0 l 1
 30 0 l 1
 30 135 l 1
30 750 m 1
 140 750 l 1
 140 615 l 1
 30 615 l 1
 30 750 l 1
140 750 m 1
 375 750 l 1
 375 0 l 1
 140 0 l 1
 140 750 l 1
460 0 m 2
 315 0 l 1
 315 135 l 1
 450 135 l 2
 564 135 630 213 630 375 c 4
 630 537 554 615 450 615 c 2
 315 615 l 1
 315 750 l 1
 460 750 l 2
 793 750 890 588 890 375 c 0
 890 162 783 -3.95560916125e-14 460 0 c 2
EndSplineSet
EndChar

StartChar: E
Encoding: 69 69 16
Width: 825
Flags: HMW
LayerCount: 2
Fore
SplineSet
370 428 m 21
 447 428 490 476 490 543 c 13
 490 428 l 5
 370 428 l 21
490 208 m 21
 490 275 447 328 370 328 c 13
 490 328 l 5
 490 208 l 21
515 135 m 17
 652 135 675 188 675 325 c 9
 675 135 l 1
 515 135 l 17
490 208 m 5
 490 328 l 5
 585 328 l 5
 585 208 l 5
 490 208 l 5
490 428 m 5
 490 543 l 5
 585 543 l 5
 585 428 l 5
 490 428 l 5
675 135 m 1
 675 325 l 1
 805 325 l 1
 805 135 l 1
 675 135 l 1
665 455 m 1
 665 615 l 1
 795 615 l 1
 795 455 l 1
 665 455 l 1
335 135 m 1
 805 135 l 1
 805 0 l 1
 335 0 l 1
 335 135 l 1
335 750 m 1
 795 750 l 1
 795 615 l 1
 335 615 l 1
 335 750 l 1
325 428 m 5
 585 428 l 5
 585 328 l 5
 325 328 l 5
 325 428 l 5
30 135 m 1
 140 135 l 1
 140 0 l 1
 30 0 l 1
 30 135 l 1
30 750 m 1
 140 750 l 1
 140 615 l 1
 30 615 l 1
 30 750 l 1
140 750 m 1
 375 750 l 1
 375 0 l 1
 140 0 l 1
 140 750 l 1
665 455 m 17
 665 572 642 615 525 615 c 9
 665 615 l 1
 665 455 l 17
EndSplineSet
EndChar

StartChar: F
Encoding: 70 70 17
Width: 815
Flags: HMW
LayerCount: 2
Fore
SplineSet
375 135 m 1
 505 135 l 5
 505 0 l 5
 375 0 l 1
 375 135 l 1
360 418 m 17
 437 418 480 466 480 533 c 9
 480 418 l 1
 360 418 l 17
480 188 m 17
 480 255 437 308 360 308 c 9
 480 308 l 1
 480 188 l 17
480 188 m 1
 480 308 l 1
 575 308 l 1
 575 188 l 1
 480 188 l 1
480 418 m 1
 480 533 l 1
 575 533 l 1
 575 418 l 1
 480 418 l 1
655 445 m 1
 655 615 l 1
 785 615 l 1
 785 445 l 1
 655 445 l 1
375 750 m 1
 785 750 l 1
 785 615 l 1
 375 615 l 1
 375 750 l 1
325 418 m 1
 575 418 l 1
 575 308 l 1
 325 308 l 1
 325 418 l 1
30 135 m 1
 140 135 l 1
 140 0 l 1
 30 0 l 1
 30 135 l 1
30 750 m 1
 140 750 l 1
 140 615 l 1
 30 615 l 1
 30 750 l 1
140 750 m 1
 375 750 l 1
 375 0 l 1
 140 0 l 1
 140 750 l 1
655 445 m 17
 655 562 632 615 515 615 c 9
 655 615 l 1
 655 445 l 17
EndSplineSet
EndChar

StartChar: G
Encoding: 71 71 18
Width: 925
Flags: HMW
LayerCount: 2
Back
SplineSet
305 375 m 4
 305 213 351 110 465 110 c 4
 589 110 625 213 625 375 c 4
 625 537 579 640 465 640 c 4
 351 640 305 537 305 375 c 4
45 375 m 4
 45 608 202 770 465 770 c 4
 728 770 885 608 885 375 c 4
 885 142 718 -20 465 -20 c 4
 202 -20 45 142 45 375 c 4
EndSplineSet
Fore
SplineSet
620 640 m 17
 710 755 l 9
 710 550 l 1
 620 640 l 17
690 485 m 1
 710 755 l 1
 825 755 l 1
 825 485 l 1
 690 485 l 1
765 485 m 1
 680 485 l 5
 640 587 584 642 480 642 c 0
 376 642 305 547 305 375 c 1
 45 375 l 1
 45 598 212 770 455 770 c 0
 688 770 765 588 765 485 c 1
845 215 m 1
 805 102 683 -20 470 -20 c 0
 222 -20 45 132 45 375 c 1
 305 375 l 1
 305 203 366 105 465 105 c 0
 569 105 590 163 610 215 c 1
 845 215 l 1
610 310 m 1
 845 305 l 1
 845 215 l 1
 610 215 l 1
 610 310 l 1
465 430 m 1
 945 430 l 1
 945 295 l 1
 465 295 l 1
 465 430 l 1
EndSplineSet
EndChar

StartChar: H
Encoding: 72 72 19
Width: 1020
Flags: HMW
LayerCount: 2
Fore
SplineSet
375 450 m 1
 645 450 l 1
 645 325 l 1
 375 325 l 1
 375 450 l 1
545 135 m 1
 645 135 l 1
 645 0 l 1
 545 0 l 1
 545 135 l 1
880 135 m 1
 990 135 l 1
 990 0 l 1
 880 0 l 1
 880 135 l 1
30 135 m 1
 140 135 l 1
 140 0 l 1
 30 0 l 1
 30 135 l 1
375 135 m 1
 475 135 l 5
 475 0 l 5
 375 0 l 1
 375 135 l 1
545 750 m 1
 645 750 l 1
 645 615 l 1
 545 615 l 1
 545 750 l 1
880 750 m 1
 990 750 l 1
 990 615 l 1
 880 615 l 1
 880 750 l 1
30 750 m 1
 140 750 l 1
 140 615 l 1
 30 615 l 1
 30 750 l 1
375 750 m 1
 475 750 l 5
 475 615 l 5
 375 615 l 1
 375 750 l 1
645 750 m 1
 880 750 l 1
 880 0 l 1
 645 0 l 1
 645 750 l 1
140 750 m 1
 375 750 l 1
 375 0 l 1
 140 0 l 1
 140 750 l 1
EndSplineSet
EndChar

StartChar: I
Encoding: 73 73 20
Width: 545
Flags: HMW
LayerCount: 2
Fore
SplineSet
30 125 m 1
 150 125 l 1
 150 0 l 1
 30 0 l 1
 30 125 l 1
385 125 m 1
 515 125 l 1
 515 0 l 1
 385 0 l 1
 385 125 l 1
30 750 m 1
 150 750 l 1
 150 625 l 1
 30 625 l 1
 30 750 l 1
385 750 m 1
 515 750 l 1
 515 625 l 1
 385 625 l 1
 385 750 l 1
150 750 m 1
 385 750 l 1
 385 0 l 1
 150 0 l 1
 150 750 l 1
EndSplineSet
EndChar

StartChar: J
Encoding: 74 74 21
Width: 696
Flags: HMW
LayerCount: 2
Fore
SplineSet
331 750 m 1
 556 750 l 1
 556 270 l 1
 331 240 l 1
 331 750 l 1
556 750 m 1
 676 750 l 1
 676 615 l 1
 556 615 l 1
 556 750 l 1
171 750 m 5
 331 750 l 1
 331 615 l 1
 171 615 l 5
 171 750 l 5
-30 195 m 1
 170 144 l 1
 170 127 184 95 236 95 c 0
 287 95 331 130 331 240 c 1
 556 270 l 1
 556 80 417 -20 236 -20 c 0
 79 -20 -30 85 -30 195 c 1
243 261 m 0
 243 171 170 172 170 144 c 1
 -30 195 l 1
 -30 297 29 370 119 370 c 0
 196 370 243 324 243 261 c 0
EndSplineSet
EndChar

StartChar: K
Encoding: 75 75 22
Width: 960
Flags: HMW
LayerCount: 2
Fore
SplineSet
30 135 m 1
 140 135 l 1
 140 0 l 1
 30 0 l 1
 30 135 l 1
375 135 m 1
 485 135 l 1
 485 0 l 1
 375 0 l 1
 375 135 l 1
30 750 m 1
 140 750 l 1
 140 615 l 1
 30 615 l 1
 30 750 l 1
375 750 m 1
 495 750 l 1
 495 615 l 1
 375 615 l 1
 375 750 l 1
140 750 m 1
 375 750 l 1
 375 0 l 1
 140 0 l 1
 140 750 l 1
340 217 m 1
 147 217 l 1
 691 658 l 1
 876 658 l 1
 340 217 l 1
525 135 m 1
 995 135 l 1
 995 0 l 1
 525 0 l 1
 525 135 l 1
940 615 m 1
 540 615 l 1
 540 750 l 1
 940 750 l 1
 940 615 l 1
937 60 m 5
 677 60 l 5
 439 420 l 1
 630 490 l 1
 937 60 l 5
EndSplineSet
EndChar

StartChar: L
Encoding: 76 76 23
Width: 790
Flags: HMW
LayerCount: 2
Fore
SplineSet
375 750 m 1
 505 750 l 1
 505 615 l 1
 375 615 l 1
 375 750 l 1
460 135 m 17
 577 135 640 178 640 345 c 9
 640 135 l 1
 460 135 l 17
640 135 m 1
 640 345 l 1
 760 345 l 5
 760 135 l 5
 640 135 l 1
375 135 m 1
 760 135 l 5
 760 0 l 5
 375 0 l 1
 375 135 l 1
30 135 m 1
 140 135 l 1
 140 0 l 1
 30 0 l 1
 30 135 l 1
30 750 m 1
 140 750 l 1
 140 615 l 1
 30 615 l 1
 30 750 l 1
140 750 m 1
 375 750 l 1
 375 0 l 1
 140 0 l 1
 140 750 l 1
EndSplineSet
EndChar

StartChar: M
Encoding: 77 77 24
Width: 1205
Flags: HMW
LayerCount: 2
Fore
SplineSet
681 154 m 1
 496 -15 l 1
 233 750 l 5
 484 750 l 5
 681 154 l 1
650 -15 m 1
 496 -15 l 1
 781 750 l 5
 910 750 l 5
 650 -15 l 1
745 135 m 1
 1180 135 l 1
 1180 0 l 1
 745 0 l 1
 745 135 l 1
25 135 m 1
 390 135 l 1
 390 0 l 1
 25 0 l 1
 25 135 l 1
1045 750 m 5
 1155 750 l 5
 1155 615 l 5
 1045 615 l 5
 1045 750 l 5
60 750 m 5
 175 750 l 5
 175 615 l 5
 60 615 l 5
 60 750 l 5
835 750 m 5
 1045 750 l 5
 1070 0 l 1
 855 0 l 1
 835 750 l 5
175 750 m 5
 305 750 l 5
 270 0 l 1
 135 0 l 1
 175 750 l 5
EndSplineSet
EndChar

StartChar: N
Encoding: 78 78 25
Width: 955
Flags: HMW
LayerCount: 2
Fore
SplineSet
840 -15 m 5
 715 -15 l 5
 715 80 l 5
 840 80 l 5
 840 -15 l 5
595 750 m 1
 705 750 l 1
 705 615 l 1
 595 615 l 1
 595 750 l 1
828 230 m 5
 715 -15 l 5
 40 750 l 1
 345 750 l 1
 828 230 l 5
30 135 m 1
 135 135 l 1
 135 0 l 1
 30 0 l 1
 30 135 l 1
270 135 m 1
 385 135 l 1
 385 0 l 1
 270 0 l 1
 270 135 l 1
840 750 m 1
 945 750 l 1
 945 615 l 1
 840 615 l 1
 840 750 l 1
30 750 m 1
 135 750 l 1
 135 615 l 1
 30 615 l 1
 30 750 l 1
705 750 m 1
 840 750 l 1
 840 -15 l 5
 705 45 l 5
 705 750 l 1
135 750 m 1
 270 750 l 1
 270 0 l 1
 135 0 l 1
 135 750 l 1
EndSplineSet
EndChar

StartChar: O
Encoding: 79 79 26
Width: 930
Flags: HMW
LayerCount: 2
Fore
SplineSet
305 375 m 4
 305 213 351 110 465 110 c 4
 589 110 625 213 625 375 c 4
 625 537 579 640 465 640 c 4
 351 640 305 537 305 375 c 4
45 375 m 4
 45 608 202 770 465 770 c 4
 728 770 885 608 885 375 c 4
 885 142 718 -20 465 -20 c 4
 202 -20 45 142 45 375 c 4
EndSplineSet
EndChar

StartChar: P
Encoding: 80 80 27
Width: 815
Flags: HMW
LayerCount: 2
Fore
SplineSet
375 135 m 1
 505 135 l 1
 505 0 l 1
 375 0 l 1
 375 135 l 1
425 415 m 1
 491 415 535 451 535 520 c 0
 535 589 491 615 425 615 c 1
 445 750 l 1
 626 750 785 690 785 520 c 0
 785 350 626 280 445 280 c 1
 425 415 l 1
140 750 m 1
 375 750 l 1
 375 0 l 1
 140 0 l 1
 140 750 l 1
30 750 m 1
 140 750 l 1
 140 615 l 1
 30 615 l 1
 30 750 l 1
30 135 m 1
 140 135 l 1
 140 0 l 1
 30 0 l 1
 30 135 l 1
375 415 m 1
 425 415 l 1
 445 280 l 1
 375 280 l 1
 375 415 l 1
375 750 m 1
 445 750 l 1
 425 615 l 1
 375 615 l 1
 375 750 l 1
EndSplineSet
EndChar

StartChar: Q
Encoding: 81 81 28
Width: 930
Flags: HMW
LayerCount: 2
Back
SplineSet
270 375 m 0
 270 193 331 80 465 80 c 0
 609 80 660 193 660 375 c 0
 660 557 599 670 465 670 c 0
 331 670 270 557 270 375 c 0
65 375 m 0
 65 588 202 770 465 770 c 0
 728 770 865 588 865 375 c 0
 865 162 718 -20 465 -20 c 0
 202 -20 65 162 65 375 c 0
354 65 m 5
 299 100 l 5
 259 121 293 353 452 353 c 4
 627 353 631 3 728 3 c 4
 780 3 805 36 815 82 c 5
 905 82 l 5
 905 82 l 5
 894 -32 814 -145 720 -145 c 4
 541 -145 606 180 424 180 c 4
 344 180 304 113 354 65 c 5
EndSplineSet
Fore
SplineSet
354 65 m 1
 299 100 l 1
 259 121 293 353 452 353 c 0
 627 353 631 3 748 3 c 4
 790 3 815 26 825 82 c 1
 935 82 l 1
 935 82 l 1
 924 -32 894 -175 740 -175 c 0
 521 -175 606 180 424 180 c 0
 344 180 304 113 354 65 c 1
305 375 m 0
 305 213 351 110 465 110 c 0
 589 110 625 213 625 375 c 0
 625 537 579 640 465 640 c 0
 351 640 305 537 305 375 c 0
45 375 m 0
 45 608 202 770 465 770 c 0
 728 770 885 608 885 375 c 0
 885 142 718 -20 465 -20 c 0
 202 -20 45 142 45 375 c 0
EndSplineSet
EndChar

StartChar: R
Encoding: 82 82 29
Width: 968
Flags: HMW
LayerCount: 2
Fore
SplineSet
485 440 m 5
 541 440 575 476 575 525 c 4
 575 574 541 615 485 615 c 5
 485 750 l 5
 716 750 815 675 815 555 c 4
 815 425 736 364 485 364 c 5
 485 440 l 5
375 750 m 5
 485 750 l 5
 485 615 l 5
 375 615 l 5
 375 750 l 5
375 440 m 5
 545 440 l 5
 545 310 l 5
 375 310 l 5
 375 440 l 5
30 135 m 5
 140 135 l 5
 140 0 l 5
 30 0 l 5
 30 135 l 5
30 750 m 5
 140 750 l 5
 140 615 l 5
 30 615 l 5
 30 750 l 5
140 750 m 5
 375 750 l 5
 375 0 l 5
 140 0 l 5
 140 750 l 5
375 135 m 5
 485 135 l 5
 485 0 l 5
 375 0 l 5
 375 135 l 5
963 130 m 5
 911 44 846 -20 730 -20 c 4
 467.03125 -20 611.256835938 310 435 310 c 5
 545 386 l 5
 858.294921875 386 741.228515625 154 814 154 c 4
 835 154 857 177 869 203 c 5
 963 130 l 5
EndSplineSet
Substitution2: "'ss01' Style Set 1 lookup 2-1" uniFFFD
EndChar

StartChar: S
Encoding: 83 83 30
Width: 710
Flags: HMW
LayerCount: 2
Fore
SplineSet
197 103 m 17
 135 -5 l 9
 135 165 l 1
 197 103 l 17
135 295 m 1
 135 -5 l 1
 20 -5 l 1
 20 295 l 1
 135 295 l 1
125 200 m 1
 135 295 l 1
 135 196 216 111 340 111 c 0
 426 111 470 136 470 185 c 1
 695 230 l 1
 695 40 561 -20 380 -20 c 0
 174 -20 125 120 125 200 c 1
35 529 m 1
 256 578 l 1
 256 458 695 520 695 230 c 1
 470 185 l 1
 470 325 35 239 35 529 c 1
493 652 m 17
 555 750 l 9
 555 590 l 1
 493 652 l 17
555 475 m 1
 555 750 l 1
 670 750 l 1
 670 475 l 1
 555 475 l 1
575 564 m 1
 555 475 l 1
 555 594 444 634 360 634 c 0
 294 634 256 612 256 578 c 1
 35 529 l 1
 35 699 179 765 310 765 c 0
 476 765 575 654 575 564 c 1
EndSplineSet
EndChar

StartChar: T
Encoding: 84 84 31
Width: 785
Flags: HMW
LayerCount: 2
Fore
SplineSet
525 620 m 9
 655 620 l 1
 655 435 l 17
 655 582 632 620 525 620 c 9
655 620 m 1
 775 620 l 1
 775 435 l 1
 655 435 l 1
 655 620 l 1
260 620 m 17
 153 620 130 582 130 435 c 9
 130 620 l 1
 260 620 l 17
130 620 m 1
 130 435 l 1
 10 435 l 1
 10 620 l 1
 130 620 l 1
300 750 m 1
 300 620 l 1
 10 620 l 1
 10 750 l 1
 300 750 l 1
485 135 m 1
 620 135 l 1
 620 0 l 1
 485 0 l 1
 485 135 l 1
485 750 m 1
 775 750 l 1
 775 620 l 1
 485 620 l 1
 485 750 l 1
165 135 m 1
 300 135 l 1
 300 0 l 1
 165 0 l 1
 165 135 l 1
285 750 m 1
 500 750 l 1
 500 0 l 1
 285 0 l 1
 285 750 l 1
EndSplineSet
EndChar

StartChar: U
Encoding: 85 85 32
Width: 900
Flags: HMW
LayerCount: 2
Fore
SplineSet
105 750 m 1
 340 750 l 1
 340 330 l 1
 105 310 l 1
 105 750 l 1
655 750 m 1
 795 750 l 1
 795 300 l 1
 655 300 l 1
 655 750 l 1
340 750 m 1
 460 750 l 1
 460 615 l 1
 340 615 l 1
 340 750 l 1
-5 750 m 1
 105 750 l 1
 105 615 l 1
 -5 615 l 1
 -5 750 l 1
795 750 m 1
 905 750 l 1
 905 615 l 1
 795 615 l 1
 795 750 l 1
530 750 m 1
 655 750 l 1
 655 615 l 1
 530 615 l 1
 530 750 l 1
655 300 m 1
 795 300 l 1
 795 85 663 -20 445 -20 c 4
 152 -20 105 127 105 310 c 5
 340 330 l 1
 340 188 376 127 490 127 c 4
 574 127 655 168 655 300 c 1
EndSplineSet
EndChar

StartChar: V
Encoding: 86 86 33
Width: 950
Flags: HMW
LayerCount: 2
Fore
SplineSet
380 -15 m 1
 380 91 l 1
 544 91 l 1
 544 -15 l 1
 380 -15 l 1
485 615 m 1
 -5 615 l 1
 -5 750 l 1
 485 750 l 1
 485 615 l 1
955 615 m 1
 625 615 l 1
 625 750 l 1
 955 750 l 1
 955 615 l 1
580 65 m 1
 380 -15 l 1
 75 700 l 1
 335 700 l 1
 580 65 l 1
579 -15 m 1
 435 -15 l 1
 751 720 l 1
 905 720 l 1
 579 -15 l 1
EndSplineSet
EndChar

StartChar: W
Encoding: 87 87 34
Width: 1290
Flags: HMW
LayerCount: 2
Fore
SplineSet
1295 615 m 5
 955 615 l 5
 955 750 l 1
 1295 750 l 1
 1295 615 l 5
996 115 m 1
 831 -10 l 1
 545 750 l 1
 785 750 l 1
 996 115 l 1
965 -10 m 1
 831 -10 l 1
 1095 750 l 1
 1228 750 l 1
 965 -10 l 1
445 615 m 5
 -5 615 l 5
 -5 750 l 1
 445 750 l 1
 445 615 l 5
905 615 m 5
 505 615 l 5
 505 750 l 1
 905 750 l 1
 905 615 l 5
525 125 m 1
 330 -10 l 1
 55 750 l 1
 325 750 l 1
 525 125 l 1
465 -10 m 1
 330 -10 l 1
 633 622 l 5
 766 622 l 5
 465 -10 l 1
EndSplineSet
EndChar

StartChar: X
Encoding: 88 88 35
Width: 920
Flags: HMW
LayerCount: 2
Fore
SplineSet
550 377 m 1
 387 377 l 1
 676 678 l 1
 856 678 l 1
 550 377 l 1
224 70 m 1
 41 70 l 1
 392 417 l 1
 552 417 l 1
 224 70 l 1
450 135 m 1
 920 135 l 1
 920 0 l 1
 450 0 l 1
 450 135 l 1
0 135 m 1
 380 135 l 1
 380 0 l 1
 0 0 l 1
 0 135 l 1
475 615 m 1
 5 615 l 1
 5 750 l 1
 475 750 l 1
 475 615 l 1
900 615 m 1
 525 615 l 1
 525 750 l 1
 900 750 l 1
 900 615 l 1
866 90 m 5
 646 20 l 5
 85 630 l 1
 301 700 l 1
 866 90 l 5
EndSplineSet
EndChar

StartChar: Y
Encoding: 89 89 36
Width: 885
Flags: HMW
LayerCount: 2
Fore
SplineSet
225 135 m 1
 335 135 l 1
 335 0 l 1
 225 0 l 1
 225 135 l 1
570 135 m 1
 690 135 l 1
 690 0 l 1
 570 0 l 1
 570 135 l 1
335 330 m 1
 570 330 l 1
 570 0 l 1
 335 0 l 1
 335 330 l 1
560 297 m 1
 391 297 l 1
 671 658 l 1
 851 658 l 1
 560 297 l 1
460 615 m 1
 -10 615 l 1
 -10 750 l 1
 460 750 l 1
 460 615 l 1
895 615 m 1
 535 615 l 1
 535 750 l 1
 895 750 l 1
 895 615 l 1
569 314 m 1
 341 250 l 1
 60 660 l 5
 330 660 l 5
 569 314 l 1
EndSplineSet
EndChar

StartChar: Z
Encoding: 90 90 37
Width: 815
Flags: HMW
LayerCount: 2
Fore
SplineSet
25 165 m 1
 225 165 l 1
 225 62 l 1
 25 62 l 1
 25 165 l 1
745 615 m 5
 745 585 l 5
 515 585 l 5
 515 615 l 5
 745 615 l 5
315 615 m 21
 208 615 175 542 175 425 c 13
 175 615 l 5
 315 615 l 21
505 135 m 17
 612 135 655 208 655 345 c 9
 655 135 l 1
 505 135 l 17
505 625 m 5
 745 585 l 5
 265 125 l 1
 25 165 l 1
 505 625 l 5
655 135 m 1
 655 345 l 1
 775 345 l 1
 775 135 l 1
 655 135 l 1
175 425 m 5
 55 425 l 5
 55 615 l 5
 175 615 l 5
 175 425 l 5
25 135 m 1
 775 135 l 1
 775 0 l 1
 25 0 l 1
 25 135 l 1
745 750 m 5
 745 615 l 5
 55 615 l 5
 55 750 l 5
 745 750 l 5
EndSplineSet
EndChar

StartChar: a
Encoding: 97 97 38
Width: 701
VWidth: 1155
Flags: HMW
LayerCount: 2
Fore
SplineSet
344 294 m 1
 364 219 l 1
 298 219 252 178 252 141 c 0
 252 114 265 99 290 99 c 0
 338 99 356 123 356 194 c 1
 415 174 l 1
 415 50 331 -15 210 -15 c 0
 101 -15 15 24 15 118 c 0
 15 242 132 294 344 294 c 1
566 352 m 1
 566 136 l 1
 356 78 l 1
 356 372 l 1
 566 352 l 1
55 383 m 1
 55 480 177 535 318 535 c 0
 468 535 566 493 566 352 c 1
 356 362 l 1
 356 409 333 444 293 444 c 0
 279 444 252 444 252 434 c 1
 55 383 l 1
344 294 m 1
 458 294 l 1
 458 219 l 1
 364 219 l 1
 344 294 l 1
706 98 m 1
 673 8 589 -15 516 -15 c 0
 409 -15 366 49 366 108 c 1
 566 136 l 1
 566 116 574 107 593 107 c 0
 611 107 622 115 634 142 c 1
 706 98 l 1
269 384 m 4
 269 330 218 300 164 300 c 0
 98 300 55 329 55 383 c 1
 252 434 l 1
 252 423 269 422 269 384 c 4
EndSplineSet
EndChar

StartChar: b
Encoding: 98 98 39
Width: 728
VWidth: 1155
Flags: HMW
LayerCount: 2
Fore
SplineSet
305 260 m 4
 305 166 342 102 393 102 c 4
 437 102 473 166 473 260 c 4
 473 354 437 418 393 418 c 4
 342 418 305 354 305 260 c 4
276 260 m 4
 276 412 300 539 471 539 c 4
 600 539 693 440 693 260 c 4
 693 80 590 -20 461 -20 c 4
 300 -20 276 108 276 260 c 4
5 105 m 5
 95 105 l 5
 95 0 l 5
 5 0 l 5
 5 105 l 5
5 780 m 5
 95 780 l 5
 95 675 l 5
 5 675 l 5
 5 780 l 5
95 780 m 5
 305 780 l 5
 305 0 l 5
 95 0 l 5
 95 780 l 5
EndSplineSet
EndChar

StartChar: c
Encoding: 99 99 40
Width: 625
VWidth: 1155
Flags: HMW
LayerCount: 2
Fore
SplineSet
15 250 m 1
 250 270 l 1
 250 176 266 83 335 83 c 0
 388 83 417 113 442 173 c 1
 578 173 l 1
 552 36 444 -20 313 -20 c 0
 112 -20 15 110 15 250 c 1
594 372 m 1
 395 426 l 1
 395 439 382 449 354 449 c 0
 289 449 250 384 250 270 c 1
 15 250 l 1
 15 400 123 540 334 540 c 4
 496 540 594 459 594 372 c 1
395 426 m 1
 594 372 l 1
 594 294 540 250 471 250 c 0
 394 250 354 291 354 348 c 0
 354 394 395 409 395 426 c 1
EndSplineSet
EndChar

StartChar: d
Encoding: 100 100 41
Width: 728
VWidth: 1155
Flags: HMW
LayerCount: 2
Fore
SplineSet
423 259 m 4
 423 353 386 417 335 417 c 4
 291 417 255 353 255 259 c 4
 255 165 291 101 335 101 c 4
 386 101 423 165 423 259 c 4
452 259 m 4
 452 107 428 -20 257 -20 c 4
 128 -20 35 79 35 259 c 4
 35 439 138 539 267 539 c 4
 428 539 452 411 452 259 c 4
723 105 m 5
 723 0 l 5
 633 0 l 5
 633 105 l 5
 723 105 l 5
423 780 m 5
 423 675 l 5
 333 675 l 5
 333 780 l 5
 423 780 l 5
633 780 m 5
 633 0 l 5
 423 0 l 5
 423 780 l 5
 633 780 l 5
EndSplineSet
EndChar

StartChar: e
Encoding: 101 101 42
Width: 649
VWidth: 1155
Flags: HMW
LayerCount: 2
Back
SplineSet
220 270 m 4
 220 146 245 60 314 60 c 4
 383 60 408 146 408 250 c 4
 408 374 383 460 314 460 c 4
 245 460 220 374 220 270 c 4
35 245 m 4
 35 405 123 540 314 540 c 4
 505 540 593 410 593 270 c 4
 593 110 505 -20 314 -20 c 4
 123 -20 35 105 35 245 c 4
EndSplineSet
Fore
SplineSet
35 250 m 5
 256 265 l 5
 256 171 266 83 355 83 c 4
 408 83 437 113 462 173 c 5
 598 173 l 5
 572 36 464 -20 333 -20 c 4
 132 -20 35 110 35 250 c 5
192 329 m 5
 506 329 l 5
 506 226 l 5
 192 226 l 5
 192 329 l 5
609 226 m 5
 399 226 l 5
 399 319 413 441 339 441 c 4
 260 441 256 354 256 250 c 5
 35 250 l 5
 35 410 139 540 340 540 c 4
 589 540 609 355 609 226 c 5
EndSplineSet
EndChar

StartChar: f
Encoding: 102 102 43
Width: 465
VWidth: 1155
Flags: HMW
LayerCount: 2
Fore
SplineSet
640 654 m 5
 439 705 l 5
 439 712 425 713 415 713 c 4
 375 713 320 677 320 550 c 5
 110 572 l 5
 110 683 207 800 407 800 c 4
 568 800 640 731 640 654 c 5
403 636 m 4
 403 683 439 694 439 705 c 5
 640 654 l 5
 640 574 585 543 523 543 c 4
 451 543 403 581 403 636 c 4
20 105 m 5
 110 105 l 5
 110 0 l 5
 20 0 l 5
 20 105 l 5
320 105 m 5
 440 105 l 5
 440 0 l 5
 320 0 l 5
 320 105 l 5
20 520 m 5
 440 520 l 5
 440 415 l 5
 20 415 l 5
 20 520 l 5
110 572 m 5
 320 550 l 5
 320 0 l 5
 110 0 l 5
 110 572 l 5
EndSplineSet
EndChar

StartChar: g
Encoding: 103 103 44
Width: 752
VWidth: 1155
Flags: HMW
LayerCount: 2
Back
SplineSet
717 444 m 5
 610 472 l 5
 610 479 605 482 594 482 c 4
 566 482 523 447 513 380 c 5
 453 402 l 5
 473 493 523 540 593 540 c 4
 674 540 717 506 717 444 c 5
581 423 m 4
 581 457 610 463 610 472 c 5
 717 444 l 5
 717 395 684 364 644 364 c 4
 601 364 581 393 581 423 c 4
270 22 m 1
 210 -4 180 -50 180 -102 c 0
 180 -160 240 -183 316 -183 c 0
 400 -183 469 -159 469 -97 c 1
 620 -62 l 1
 620 -203 480 -265 300 -265 c 0
 117 -265 25 -220 25 -135 c 0
 25 -44 155 12 200 12 c 1
 270 22 l 1
77 84 m 1
 190 121 l 1
 190 100 207 99 262 99 c 0
 287 99 405 100 433 100 c 0
 548 100 620 54 620 -62 c 1
 469 -97 l 1
 469 -53 435 -39 370 -39 c 0
 349 -39 298 -39 276 -39 c 0
 186 -39 77 -8 77 84 c 1
310 168 m 1
 267 168 190 145 190 121 c 1
 77 84 l 1
 77 158 197 217 312 207 c 1
 310 168 l 1
70 345 m 0
 70 455 158 540 309 540 c 0
 460 540 548 455 548 345 c 0
 548 235 460 150 309 150 c 0
 158 150 70 235 70 345 c 0
245 345 m 0
 245 271 260 220 309 220 c 0
 358 220 373 271 373 345 c 0
 373 419 358 470 309 470 c 0
 260 470 245 419 245 345 c 0
EndSplineSet
Fore
SplineSet
752 444 m 1
 599 464 l 1
 599 468 598 470 592 470 c 4
 574 470 523 437 523 380 c 1
 443 412 l 1
 473 503 563 540 633 540 c 0
 694 540 752 506 752 444 c 1
571 408 m 0
 571 452 599 453 599 464 c 1
 752 444 l 1
 752 375 704 344 654 344 c 0
 601 344 571 378 571 408 c 0
340 12 m 1
 280 -14 190 -50 190 -102 c 0
 190 -150 240 -163 316 -163 c 0
 400 -163 446 -143 446 -101 c 1
 620 -62 l 1
 620 -203 480 -265 300 -265 c 0
 117 -265 5 -220 5 -135 c 0
 5 -44 155 2 270 2 c 1
 340 12 l 1
310 188 m 1
 237 188 220 171 220 147 c 1
 57 84 l 1
 57 188 197 237 312 227 c 1
 310 188 l 1
57 84 m 1
 220 147 l 1
 220 133 227 119 262 119 c 0
 287 119 405 120 433 120 c 0
 548 120 620 54 620 -62 c 1
 446 -101 l 1
 446 -67 425 -59 360 -59 c 0
 339 -59 288 -59 266 -59 c 0
 176 -59 57 -8 57 84 c 1
60 355 m 0
 60 475 178 540 309 540 c 0
 440 540 548 475 548 355 c 0
 548 235 440 170 309 170 c 0
 178 170 60 235 60 355 c 0
265 355 m 0
 265 301 275 260 309 260 c 0
 343 260 353 301 353 355 c 0
 353 409 343 450 309 450 c 0
 275 450 265 409 265 355 c 0
EndSplineSet
EndChar

StartChar: h
Encoding: 104 104 45
Width: 740
VWidth: 1155
Flags: HMW
LayerCount: 2
Fore
SplineSet
630 105 m 5
 720 105 l 5
 720 0 l 5
 630 0 l 5
 630 105 l 5
370 105 m 5
 420 105 l 5
 420 0 l 5
 370 0 l 5
 370 105 l 5
420 353 m 5
 630 369 l 5
 630 0 l 5
 420 0 l 5
 420 353 l 5
420 353 m 5
 420 407 406 423 375 423 c 4
 337 423 285 386 285 283 c 5
 246 283 l 5
 246 385 265 540 448 540 c 4
 565 540 630 476 630 369 c 5
 420 353 l 5
285 105 m 5
 335 105 l 5
 335 0 l 5
 285 0 l 5
 285 105 l 5
95 780 m 1
 285 780 l 5
 285 0 l 5
 95 0 l 1
 95 780 l 1
5 780 m 1
 95 780 l 1
 95 675 l 1
 5 675 l 1
 5 780 l 1
5 105 m 1
 95 105 l 1
 95 0 l 1
 5 0 l 1
 5 105 l 1
EndSplineSet
EndChar

StartChar: i
Encoding: 105 105 46
Width: 410
VWidth: 1155
Flags: HMW
LayerCount: 2
Fore
SplineSet
85 690 m 4
 85 758 139 795 205 795 c 4
 271 795 325 758 325 690 c 4
 325 622 271 585 205 585 c 4
 139 585 85 622 85 690 c 4
15 105 m 5
 105 105 l 5
 105 0 l 5
 15 0 l 5
 15 105 l 5
315 105 m 5
 405 105 l 5
 405 0 l 5
 315 0 l 5
 315 105 l 5
15 520 m 5
 105 520 l 5
 105 415 l 5
 15 415 l 5
 15 520 l 5
105 520 m 5
 315 520 l 5
 315 0 l 5
 105 0 l 5
 105 520 l 5
EndSplineSet
EndChar

StartChar: j
Encoding: 106 106 47
Width: 380
VWidth: 1155
Flags: HMW
LayerCount: 2
Back
SplineSet
-125 -131 m 1
 0 -180 l 1
 0 -192 12 -207 36 -207 c 0
 126 -207 100 -23 100 104 c 1
 230 11 l 1
 230 -120 183 -262 33 -262 c 0
 -88 -262 -125 -198 -125 -131 c 1
32 -113 m 0
 32 -163 0 -165 0 -180 c 1
 -125 -131 l 1
 -125 -78 -88 -45 -43 -45 c 0
 2 -45 32 -75 32 -113 c 0
75 700 m 0
 75 744 108 780 160 780 c 0
 212 780 245 744 245 700 c 0
 245 656 212 620 160 620 c 0
 108 620 75 656 75 700 c 0
10 520 m 5
 100 520 l 5
 100 455 l 5
 10 455 l 5
 10 520 l 5
100 520 m 1
 230 520 l 1
 230 11 l 1
 100 104 l 1
 100 520 l 1
EndSplineSet
Fore
SplineSet
90 690 m 0
 90 758 144 795 210 795 c 0
 276 795 330 758 330 690 c 0
 330 622 276 585 210 585 c 0
 144 585 90 622 90 690 c 0
-165 -114 m 5
 27 -162 l 1
 27 -170 33 -175 51 -175 c 0
 151 -175 110 -67 110 70 c 1
 320 -32 l 1
 320 -193 203 -260 53 -260 c 0
 -68 -260 -165 -211 -165 -114 c 5
67 -96 m 0
 67 -153 27 -151 27 -162 c 1
 -165 -114 l 5
 -165 -54 -115 -8 -53 -8 c 0
 19 -8 67 -51 67 -96 c 0
320 -32 m 1
 110 70 l 1
 110 520 l 1
 320 520 l 1
 320 -32 l 1
20 520 m 1
 110 520 l 1
 110 415 l 1
 20 415 l 1
 20 520 l 1
EndSplineSet
EndChar

StartChar: k
Encoding: 107 107 48
Width: 776
VWidth: 1155
Flags: HMW
LayerCount: 2
Fore
SplineSet
389 105 m 1
 771 105 l 1
 771 0 l 1
 389 0 l 1
 389 105 l 1
737 405 m 1
 384 405 l 1
 384 520 l 1
 737 520 l 1
 737 405 l 1
733 30 m 1
 500 30 l 1
 277 291 l 1
 462 346 l 1
 733 30 l 1
445 270 m 1
 277 291 l 1
 524 440 l 5
 684 430 l 5
 445 270 l 1
5 105 m 1
 95 105 l 1
 95 0 l 1
 5 0 l 1
 5 105 l 1
305 105 m 1
 355 105 l 1
 355 0 l 1
 305 0 l 1
 305 105 l 1
5 780 m 1
 95 780 l 1
 95 675 l 1
 5 675 l 1
 5 780 l 1
95 780 m 1
 305 780 l 1
 305 0 l 1
 95 0 l 1
 95 780 l 1
EndSplineSet
EndChar

StartChar: l
Encoding: 108 108 49
Width: 400
VWidth: 1155
Flags: HMW
LayerCount: 2
Fore
SplineSet
5 105 m 5
 95 105 l 5
 95 0 l 5
 5 0 l 5
 5 105 l 5
305 105 m 5
 395 105 l 5
 395 0 l 5
 305 0 l 5
 305 105 l 5
5 780 m 5
 95 780 l 5
 95 675 l 5
 5 675 l 5
 5 780 l 5
95 780 m 5
 305 780 l 5
 305 0 l 5
 95 0 l 5
 95 780 l 5
EndSplineSet
EndChar

StartChar: m
Encoding: 109 109 50
Width: 1090
VWidth: 1155
Flags: HMW
LayerCount: 2
Back
SplineSet
260 420 m 5
 100 420 l 5
 100 520 l 5
 260 520 l 5
 260 420 l 5
922 75 m 5
 1003 75 l 5
 1003 0 l 5
 922 0 l 5
 922 75 l 5
679 75 m 5
 752 75 l 5
 752 0 l 5
 679 0 l 5
 679 75 l 5
752 358 m 5
 922 369 l 5
 922 0 l 5
 752 0 l 5
 752 358 l 5
366 75 m 5
 426 75 l 5
 426 0 l 5
 366 0 l 5
 366 75 l 5
752 358 m 5
 752 412 743 448 697 448 c 4
 629 448 596 386 596 283 c 5
 557 283 l 5
 557 395 587 540 750 540 c 4
 877 540 922 476 922 369 c 5
 752 358 l 5
596 75 m 5
 657 75 l 5
 657 0 l 5
 596 0 l 5
 596 75 l 5
426 358 m 5
 596 369 l 5
 596 0 l 5
 426 0 l 5
 426 358 l 5
270 75 m 5
 343 75 l 5
 343 0 l 5
 270 0 l 5
 270 75 l 5
100 520 m 5
 270 420 l 5
 270 0 l 5
 100 0 l 5
 100 520 l 5
20 520 m 5
 100 520 l 5
 100 445 l 5
 20 445 l 5
 20 520 l 5
20 75 m 5
 100 75 l 5
 100 0 l 5
 20 0 l 5
 20 75 l 5
426 358 m 5
 426 412 417 448 371 448 c 4
 293 448 270 386 270 283 c 5
 231 283 l 5
 231 395 261 540 424 540 c 4
 551 540 596 476 596 369 c 5
 426 358 l 5
EndSplineSet
Fore
SplineSet
980 105 m 1
 1070 105 l 1
 1070 0 l 1
 980 0 l 1
 980 105 l 1
725 105 m 1
 770 105 l 1
 770 0 l 1
 725 0 l 1
 725 105 l 1
770 353 m 1
 980 369 l 1
 980 0 l 1
 770 0 l 1
 770 353 l 1
650 105 m 1
 695 105 l 1
 695 0 l 1
 650 0 l 1
 650 105 l 1
770 353 m 1
 770 407 756 423 725 423 c 4
 697 423 650 386 650 283 c 1
 591 283 l 5
 591 385 625 540 798 540 c 0
 915 540 980 476 980 369 c 1
 770 353 l 1
300 380 m 1
 110 380 l 1
 110 520 l 1
 300 520 l 1
 300 380 l 1
395 105 m 1
 440 105 l 1
 440 0 l 1
 395 0 l 1
 395 105 l 1
440 353 m 1
 650 369 l 1
 650 0 l 1
 440 0 l 1
 440 353 l 1
320 105 m 1
 365 105 l 1
 365 0 l 1
 320 0 l 1
 320 105 l 1
110 520 m 1
 320 380 l 1
 320 0 l 1
 110 0 l 1
 110 520 l 1
20 520 m 1
 110 520 l 1
 110 415 l 1
 20 415 l 1
 20 520 l 1
20 105 m 1
 110 105 l 1
 110 0 l 1
 20 0 l 1
 20 105 l 1
440 353 m 1
 440 407 426 423 395 423 c 4
 367 423 320 386 320 283 c 1
 271 283 l 1
 271 385 285 540 468 540 c 0
 585 540 650 476 650 369 c 1
 440 353 l 1
EndSplineSet
EndChar

StartChar: n
Encoding: 110 110 51
Width: 775
VWidth: 1155
Flags: HMW
LayerCount: 2
Fore
SplineSet
300 380 m 5
 110 380 l 5
 110 520 l 5
 300 520 l 5
 300 380 l 5
665 105 m 5
 755 105 l 5
 755 0 l 5
 665 0 l 5
 665 105 l 5
405 105 m 5
 455 105 l 5
 455 0 l 5
 405 0 l 5
 405 105 l 5
455 353 m 5
 665 369 l 5
 665 0 l 5
 455 0 l 5
 455 353 l 5
320 105 m 5
 370 105 l 5
 370 0 l 5
 320 0 l 5
 320 105 l 5
110 520 m 5
 320 380 l 5
 320 0 l 5
 110 0 l 5
 110 520 l 5
20 520 m 5
 110 520 l 5
 110 415 l 5
 20 415 l 5
 20 520 l 5
20 105 m 5
 110 105 l 5
 110 0 l 5
 20 0 l 5
 20 105 l 5
455 353 m 5
 455 407 441 423 410 423 c 4
 372 423 320 386 320 283 c 5
 271 283 l 5
 271 385 300 540 483 540 c 4
 600 540 665 476 665 369 c 5
 455 353 l 5
EndSplineSet
EndChar

StartChar: o
Encoding: 111 111 52
Width: 668
VWidth: 1155
Flags: HMW
LayerCount: 2
Fore
SplineSet
260 270 m 4
 260 166 275 80 334 80 c 4
 393 80 408 166 408 250 c 4
 408 354 393 440 334 440 c 4
 275 440 260 354 260 270 c 4
35 245 m 0
 35 405 143 540 334 540 c 0
 525 540 633 410 633 270 c 0
 633 110 525 -20 334 -20 c 0
 143 -20 35 105 35 245 c 0
EndSplineSet
EndChar

StartChar: p
Encoding: 112 112 53
Width: 728
VWidth: 1155
Flags: HMW
LayerCount: 2
Fore
SplineSet
5 -260 m 5
 5 -155 l 5
 95 -155 l 5
 95 -260 l 5
 5 -260 l 5
305 261 m 0
 305 167 342 103 393 103 c 0
 437 103 473 167 473 261 c 0
 473 355 437 419 393 419 c 0
 342 419 305 355 305 261 c 0
276 261 m 0
 276 413 300 540 471 540 c 0
 600 540 693 441 693 261 c 0
 693 81 590 -19 461 -19 c 0
 300 -19 276 109 276 261 c 0
5 415 m 1
 5 520 l 1
 95 520 l 1
 95 415 l 1
 5 415 l 1
305 -260 m 1
 305 -155 l 1
 395 -155 l 1
 395 -260 l 1
 305 -260 l 1
95 -260 m 1
 95 520 l 1
 305 520 l 1
 305 -260 l 1
 95 -260 l 1
EndSplineSet
EndChar

StartChar: q
Encoding: 113 113 54
Width: 728
VWidth: 1155
Flags: HMW
LayerCount: 2
Back
SplineSet
423 -165 m 5
 423 -250 l 5
 333 -250 l 5
 333 -165 l 5
 423 -165 l 5
423 260 m 4
 423 354 386 438 315 438 c 4
 251 438 215 354 215 260 c 4
 215 166 251 82 315 82 c 4
 386 82 423 166 423 260 c 4
452 260 m 4
 452 108 408 -20 267 -20 c 4
 138 -20 35 80 35 260 c 4
 35 440 148 539 277 539 c 4
 408 539 452 412 452 260 c 4
683 -165 m 5
 683 -250 l 5
 593 -250 l 5
 593 -165 l 5
 683 -165 l 5
683 520 m 5
 683 435 l 5
 593 435 l 5
 593 520 l 5
 683 520 l 5
593 520 m 5
 593 -250 l 5
 423 -250 l 5
 423 520 l 5
 593 520 l 5
EndSplineSet
Fore
SplineSet
423 -260 m 1
 333 -260 l 1
 333 -155 l 1
 423 -155 l 1
 423 -260 l 1
423 260 m 0
 423 354 386 418 335 418 c 0
 291 418 255 354 255 260 c 0
 255 166 291 102 335 102 c 0
 386 102 423 166 423 260 c 0
452 260 m 0
 452 108 428 -19 257 -19 c 0
 128 -19 35 80 35 260 c 0
 35 440 138 540 267 540 c 0
 428 540 452 412 452 260 c 0
723 415 m 1
 633 415 l 1
 633 520 l 1
 723 520 l 1
 723 415 l 1
723 -260 m 1
 633 -260 l 1
 633 -155 l 1
 723 -155 l 1
 723 -260 l 1
633 -260 m 1
 423 -260 l 1
 423 520 l 1
 633 520 l 1
 633 -260 l 1
EndSplineSet
EndChar

StartChar: r
Encoding: 114 114 55
Width: 643
VWidth: 1155
Flags: HMW
LayerCount: 2
Fore
SplineSet
440 436 m 1
 440 441 436 446 425 446 c 0
 377 446 315 366 315 263 c 1
 261 263 l 1
 261 355 289 540 480 540 c 0
 574 540 643 494 643 406 c 1
 440 436 l 1
15 105 m 1
 105 105 l 1
 105 0 l 1
 15 0 l 1
 15 105 l 1
15 520 m 1
 105 520 l 1
 105 415 l 1
 15 415 l 1
 15 520 l 1
105 520 m 1
 315 520 l 1
 315 0 l 1
 105 0 l 1
 105 520 l 1
315 105 m 1
 405 105 l 1
 405 0 l 1
 315 0 l 1
 315 105 l 1
410 366 m 0
 410 413 440 424 440 436 c 1
 643 406 l 1
 643 354 606 280 521 280 c 4
 457 280 410 315 410 366 c 0
EndSplineSet
EndChar

StartChar: s
Encoding: 115 115 56
Width: 570
VWidth: 1155
Flags: HMW
LayerCount: 2
Fore
SplineSet
37 375 m 1
 235 416 l 1
 235 326 550 355 550 157 c 1
 347 118 l 1
 347 215 37 179 37 375 c 1
175 67 m 17
 120 -10 l 9
 120 112 l 1
 175 67 l 17
125 203 m 1
 120 -10 l 1
 20 -10 l 1
 20 203 l 1
 125 203 l 1
100 107 m 1
 125 203 l 1
 145 120 211 75 273 75 c 0
 313 75 347 82 347 118 c 1
 550 157 l 1
 550 23 450 -22 313 -22 c 0
 164 -22 100 79 100 107 c 1
387 453 m 17
 432 530 l 1
 432 408 l 1
 387 453 l 17
427 330 m 1
 432 530 l 1
 532 530 l 1
 532 330 l 1
 427 330 l 1
430 423 m 1
 427 330 l 1
 417 413 345 446 293 446 c 0
 270 446 235 443 235 416 c 1
 37 375 l 1
 37 489 137 542 252 542 c 0
 410 542 430 449 430 423 c 1
EndSplineSet
EndChar

StartChar: t
Encoding: 116 116 57
Width: 498
VWidth: 1155
Flags: HMW
LayerCount: 2
Fore
SplineSet
473 106 m 1
 440 46 396 -17 263 -17 c 0
 146 -17 93 27 93 136 c 5
 303 154 l 1
 303 119 315 102 339 102 c 0
 359 102 378 114 400 151 c 1
 473 106 l 1
0 520 m 17
 86 520 188 523 218 700 c 9
 218 520 l 1
 0 520 l 17
218 520 m 1
 218 700 l 1
 303 700 l 1
 303 520 l 1
 218 520 l 1
0 520 m 1
 430 520 l 1
 430 415 l 1
 0 415 l 1
 0 520 l 1
303 498 m 1
 303 154 l 1
 93 136 l 5
 93 498 l 1
 303 498 l 1
EndSplineSet
EndChar

StartChar: u
Encoding: 117 117 58
Width: 775
VWidth: 1155
Flags: HMW
LayerCount: 2
Back
SplineSet
625 0 m 5
 465 0 l 5
 465 110 l 5
 625 110 l 5
 625 0 l 5
110 435 m 5
 20 435 l 5
 20 520 l 5
 110 520 l 5
 110 435 l 5
280 167 m 5
 110 151 l 5
 110 520 l 5
 280 520 l 5
 280 167 l 5
455 435 m 5
 385 435 l 5
 385 520 l 5
 455 520 l 5
 455 435 l 5
625 0 m 5
 455 110 l 5
 455 520 l 5
 625 520 l 5
 625 0 l 5
715 0 m 5
 625 0 l 5
 625 85 l 5
 715 85 l 5
 715 0 l 5
280 167 m 5
 280 103 294 77 345 77 c 4
 413 77 455 134 455 237 c 5
 494 237 l 5
 494 135 455 -20 272 -20 c 4
 155 -20 110 44 110 151 c 5
 280 167 l 5
EndSplineSet
Fore
SplineSet
475 140 m 1
 665 140 l 1
 665 0 l 1
 475 0 l 1
 475 140 l 1
110 415 m 1
 20 415 l 1
 20 520 l 1
 110 520 l 1
 110 415 l 1
320 167 m 1
 110 151 l 1
 110 520 l 1
 320 520 l 1
 320 167 l 1
455 415 m 1
 385 415 l 1
 385 520 l 1
 455 520 l 1
 455 415 l 1
665 0 m 1
 455 140 l 1
 455 520 l 1
 665 520 l 1
 665 0 l 1
755 0 m 1
 665 0 l 1
 665 105 l 1
 755 105 l 1
 755 0 l 1
320 167 m 1
 320 113 334 97 365 97 c 0
 403 97 455 134 455 237 c 1
 504 237 l 1
 504 135 475 -20 292 -20 c 0
 175 -20 110 44 110 151 c 1
 320 167 l 1
EndSplineSet
EndChar

StartChar: v
Encoding: 118 118 59
Width: 679
VWidth: 1155
Flags: HMW
LayerCount: 2
Fore
SplineSet
386 415 m 1
 -5 415 l 1
 -5 520 l 1
 386 520 l 1
 386 415 l 1
684 415 m 1
 430 415 l 1
 430 520 l 1
 684 520 l 1
 684 415 l 1
453 120 m 1
 298 -15 l 1
 30 490 l 1
 270 490 l 1
 453 120 l 1
405 -15 m 1
 298 -15 l 1
 528 490 l 1
 655 490 l 1
 405 -15 l 1
EndSplineSet
EndChar

StartChar: w
Encoding: 119 119 60
Width: 945
VWidth: 1155
Flags: HMW
LayerCount: 2
Fore
SplineSet
599 -15 m 5
 599 30 l 5
 686 30 l 5
 686 -15 l 5
 599 -15 l 5
233 -15 m 5
 233 30 l 5
 320 30 l 5
 320 -15 l 5
 233 -15 l 5
950 415 m 5
 666 415 l 5
 666 520 l 5
 950 520 l 5
 950 415 l 5
766 100 m 5
 599 -15 l 5
 409 393 l 5
 575 520 l 5
 766 100 l 5
728 -15 m 5
 609 -15 l 5
 779 520 l 5
 901 520 l 5
 728 -15 l 5
366 415 m 5
 -5 415 l 5
 -5 520 l 5
 366 520 l 5
 366 415 l 5
400 80 m 5
 233 -15 l 5
 50 500 l 5
 254 520 l 5
 400 80 l 5
362 -15 m 5
 243 -15 l 5
 453 520 l 5
 575 520 l 5
 362 -15 l 5
EndSplineSet
EndChar

StartChar: x
Encoding: 120 120 61
Width: 724
VWidth: 1155
Flags: HMW
LayerCount: 2
Fore
SplineSet
343 105 m 1
 729 105 l 1
 729 0 l 1
 343 0 l 1
 343 105 l 1
-5 105 m 1
 284 105 l 5
 284 0 l 5
 -5 0 l 1
 -5 105 l 1
409 415 m 1
 18 415 l 1
 18 520 l 1
 409 520 l 1
 409 415 l 1
712 415 m 1
 448 415 l 1
 448 520 l 1
 712 520 l 1
 712 415 l 1
714 40 m 1
 469 40 l 1
 63 460 l 1
 308 460 l 1
 714 40 l 1
160 50 m 1
 25 70 l 1
 537 460 l 1
 672 440 l 1
 160 50 l 1
EndSplineSet
EndChar

StartChar: y
Encoding: 121 121 62
Width: 715
VWidth: 1155
Flags: HMW
LayerCount: 2
Back
SplineSet
426 415 m 5
 35 415 l 5
 35 520 l 5
 426 520 l 5
 426 415 l 5
714 415 m 5
 470 415 l 5
 470 520 l 5
 714 520 l 5
 714 415 l 5
493 120 m 5
 338 -15 l 5
 70 490 l 5
 310 490 l 5
 493 120 l 5
445 -15 m 5
 338 -15 l 5
 568 490 l 5
 695 490 l 5
 445 -15 l 5
236 -97 m 0
 236 -165 178 -160 178 -176 c 1
 75 -128 l 1
 75 -72 100 -23 161 -23 c 0
 211 -23 236 -56 236 -97 c 0
473 58 m 1
 392 -67 l 1
 126 520 l 1
 266 520 l 1
 473 58 l 1
710 435 m 1
 495 435 l 1
 495 520 l 1
 710 520 l 1
 710 435 l 1
363 435 m 1
 72 435 l 1
 72 520 l 1
 363 520 l 1
 363 435 l 1
223 -205 m 1
 262 -205 317.92578125 -180.27734375 365 -60 c 2
 592 520 l 1
 666 520 l 1
 419 -102 l 2
 367.118164062 -232.649414062 281 -265 223 -265 c 1
 223 -205 l 1
75 -128 m 1
 178 -176 l 1
 178 -189 190 -205 223 -205 c 1
 223 -265 l 1
 126 -265 75 -195 75 -128 c 1
EndSplineSet
Fore
SplineSet
256 -32 m 4
 256 -140 158 -111 158 -142 c 5
 15 -98 l 5
 15 -2 80 67 151 67 c 4
 211 67 256 29 256 -32 c 4
493 88 m 1
 372 -87 l 1
 66 520 l 1
 286 520 l 1
 493 88 l 1
720 415 m 1
 460 415 l 1
 460 520 l 1
 720 520 l 1
 720 415 l 1
418 415 m 1
 42 415 l 1
 42 520 l 1
 418 520 l 1
 418 415 l 1
193 -165 m 5
 252 -165 287.795898438 -120.212890625 335 -10 c 2
 572 520 l 1
 706 520 l 1
 439 -52 l 2
 385.376953125 -166.877929688 330.392578125 -263.139648438 193 -265 c 5
 193 -165 l 5
15 -98 m 5
 158 -142 l 5
 158 -155 169 -165 193 -165 c 5
 193 -265 l 5
 66 -265 15 -185 15 -98 c 5
EndSplineSet
EndChar

StartChar: z
Encoding: 122 122 63
Width: 600
VWidth: 1155
Flags: HMW
LayerCount: 2
Fore
SplineSet
335 420 m 1
 564 420 l 1
 268 100 l 1
 30 100 l 1
 335 420 l 1
304 100 m 17
 451 100 465 160 465 274 c 9
 465 100 l 1
 304 100 l 17
465 100 m 1
 465 274 l 1
 565 274 l 1
 565 100 l 1
 465 100 l 1
153 268 m 1
 53 268 l 1
 53 420 l 1
 153 420 l 1
 153 268 l 1
30 100 m 1
 565 100 l 1
 565 0 l 1
 30 0 l 1
 30 100 l 1
564 520 m 1
 564 420 l 1
 53 420 l 1
 53 520 l 1
 564 520 l 1
153 268 m 9
 153 420 l 1
 291 420 l 17
 167 420 153 359 153 268 c 9
EndSplineSet
EndChar

StartChar: comma
Encoding: 44 44 65
Width: 365
Flags: HMW
LayerCount: 2
Fore
SplineSet
307 79 m 1
 307 -71 168 -156 48 -156 c 5
 48 -66 l 5
 113 -66 215 -34 209 46 c 1
 225.365234375 51.9150390625 278.764648438 133.112304688 307 79 c 1
40 104 m 0
 40 167 89 223 167 223 c 0
 231 223 307 192 307 79 c 0
 307 64.2919921875 228.416015625 51.5830078125 218 45 c 0
 206.506835938 37.736328125 196.291992188 -5 128 -5 c 0
 75 -5 40 41 40 104 c 0
EndSplineSet
EndChar

StartChar: exclam
Encoding: 33 33 67
Width: 399
Flags: HMW
LayerCount: 2
Fore
SplineSet
328 624 m 0
 307 448 243 438 243 288 c 5
 155 288 l 5
 155 438 91 448 70 624 c 0
 69.1706554812 630.95069692 70 637 70 643 c 0
 70 729 132 768 199 768 c 0
 266 768 329 729 329 643 c 0
 329 637 328.829344519 630.95069692 328 624 c 0
EndSplineSet
Refer: 1 46 N 1 0 0 1 40 0 2
EndChar

StartChar: quotesingle
Encoding: 39 39 70
Width: 299
Flags: HMW
LayerCount: 2
Fore
SplineSet
258 654 m 0
 247 589 187 548 187 458 c 1
 109 458 l 1
 109 548 51 589 40 654 c 0
 38.8203125 660.971679688 39 666 39 672 c 0
 39 726 85 768 149 768 c 0
 213 768 259 726 259 672 c 0
 259 666 259.1796875 660.971679688 258 654 c 0
EndSplineSet
EndChar

StartChar: question
Encoding: 63 63 75
Width: 630
Flags: HMW
LayerCount: 2
Fore
SplineSet
207 389.01171875 m 1
 407 389.01171875 l 1
 407 269.01171875 l 1
 207 269.01171875 l 1
 207 389.01171875 l 1
45 571 m 1
 45 663 129 770 321 770 c 0
 532 770 610 690 610 570 c 1
 389 570 l 1
 389 644 370 678 301 678 c 0
 247 678 238 658 238 646 c 1
 45 571 l 1
238 646 m 1
 238 626 284 621 284 550 c 0
 284 488 232 440 167 440 c 0
 102 440 45 493 45 571 c 1
 238 646 l 1
207 389.01171875 m 1
 314.477539062 420.314453125 389 466.76171875 389 570 c 1
 610 570 l 1
 610 410 408 340 247 340 c 1
 207 389.01171875 l 1
EndSplineSet
Refer: 1 46 S 1 0 0 1 159 0 2
EndChar

StartChar: parenleft
Encoding: 40 40 76
Width: 505
Flags: HMW
LayerCount: 2
Fore
SplineSet
505 -90 m 5
 465 -170 l 1
 242 -120 55 62 55 325 c 0
 55 588 242 750 465 800 c 1
 505 720 l 1
 361 670 290 557 290 325 c 0
 290 93 361 -40 505 -90 c 5
EndSplineSet
EndChar

StartChar: asterisk
Encoding: 42 42 78
Width: 635
VWidth: 1155
Flags: HMW
LayerCount: 2
Fore
SplineSet
326.659179688 498.194335938 m 1
 448.666992188 568.065429688 497.866210938 503.875 561.056640625 540.358398438 c 0
 607.822265625 567.359375 610.704101562 616.365234375 581.204101562 667.4609375 c 0
 551.704101562 718.556640625 507.821289062 740.564453125 461.055664062 713.564453125 c 0
 397.64453125 676.953125 429.057617188 602.49609375 307.340820312 531.651367188 c 1
 326.659179688 498.194335938 l 1
307.340820312 531.651367188 m 1
 185.333007812 461.780273438 136.133789062 525.970703125 72.943359375 489.487304688 c 0
 26.177734375 462.486328125 23.2958984375 413.48046875 52.7958984375 362.384765625 c 0
 82.2958984375 311.2890625 126.178710938 289.28125 172.944335938 316.28125 c 0
 236.35546875 352.892578125 204.942382812 427.349609375 326.659179688 498.194335938 c 1
 307.340820312 531.651367188 l 1
307.341796875 498.193359375 m 1
 428.856445312 427.466796875 397.865234375 352.764648438 461.056640625 316.28125 c 0
 507.822265625 289.28125 551.704101562 311.2890625 581.204101562 362.384765625 c 0
 610.704101562 413.479492188 607.822265625 462.487304688 561.056640625 489.487304688 c 0
 497.64453125 526.09765625 448.869140625 461.665039062 326.658203125 531.65234375 c 1
 307.341796875 498.193359375 l 1
326.658203125 531.65234375 m 1
 205.143554688 602.37890625 236.134765625 677.081054688 172.943359375 713.564453125 c 0
 126.177734375 740.564453125 82.2958984375 718.556640625 52.7958984375 667.4609375 c 0
 23.2958984375 616.366210938 26.177734375 567.358398438 72.943359375 540.358398438 c 0
 136.35546875 503.748046875 185.130859375 568.180664062 307.341796875 498.193359375 c 1
 326.658203125 531.65234375 l 1
297.682617188 514.922851562 m 1
 297.189453125 374.32421875 217 363.8125 217 290.845703125 c 0
 217 236.845703125 258 209.845703125 317 209.845703125 c 0
 376 209.845703125 417 236.845703125 417 290.845703125 c 0
 417 364.067382812 336.811523438 374.091796875 336.317382812 514.922851562 c 1
 297.682617188 514.922851562 l 1
336.317382812 514.922851562 m 1
 336.810546875 655.521484375 417 666.033203125 417 739 c 0
 417 793 376 820 317 820 c 0
 258 820 217 793 217 739 c 0
 217 665.778320312 297.188476562 655.75390625 297.682617188 514.922851562 c 1
 336.317382812 514.922851562 l 1
EndSplineSet
EndChar

StartChar: at
Encoding: 64 64 79
Width: 1150
VWidth: 1155
Flags: HMW
LayerCount: 2
Back
SplineSet
865 -74 m 5
 781 -172 652 -224 489 -224 c 4
 306 -224 45 -112 45 221 c 5
 230 231 l 5
 230 -71 411 -129 525 -129 c 4
 619 -129 716 -113 806 -15 c 5
 865 -74 l 5
862 520 m 5
 790 210 l 5
 620 210 l 5
 692 520 l 5
 862 520 l 5
673 359 m 4
 673 192.828125 604 65 484 65 c 4
 375 65 324 125.583984375 324 210 c 4
 324 380 409 534 568 534 c 4
 679 534 673 461 673 359 c 4
644 346 m 4
 644 387.927734375 640 458 594 458 c 4
 550 458 495 324 495 220 c 4
 495 173.072265625 500 142 534 142 c 4
 595 142 644 268 644 346 c 4
620 210 m 5
 790 210 l 5
 788 197 775 160 808 160 c 4
 859 160 957 241 957 405 c 5
 1050 401 l 5
 1050 231 942 65 761 65 c 4
 662 65 607 148 620 210 c 5
957 405 m 5
 957 612 806 712 622 712 c 4
 408 712 230 503 230 231 c 5
 45 221 l 5
 45 554 292 800 605 800 c 4
 898 800 1050 624 1050 401 c 5
 957 405 l 5
EndSplineSet
Fore
SplineSet
895 -74 m 1
 811 -172 682 -224 519 -224 c 0
 336 -224 45 -112 45 221 c 1
 270 241 l 5
 270 29 381 -109 555 -109 c 4
 649 -109 736 -103 826 -5 c 1
 895 -74 l 1
892 520 m 1
 820 220 l 1
 650 210 l 1
 722 520 l 1
 892 520 l 1
713 359 m 0
 713 192.828125 644 65 504 65 c 0
 425 65 354 105.583984375 354 210 c 0
 354 320 439 534 598 534 c 0
 709 534 713 461 713 359 c 0
674 346 m 0
 674 387.927734375 672 418 644 418 c 0
 600 418 565 304 565 240 c 0
 565 193.072265625 570 182 584 182 c 0
 625 182 674 268 674 346 c 0
650 210 m 1
 820 220 l 1
 818 207 805 170 838 170 c 0
 889 170 977 241 977 405 c 1
 1090 401 l 1
 1090 231 972 63 791 63 c 0
 692 63 637 148 650 210 c 1
977 405 m 1
 977 612 806 682 672 682 c 4
 478 682 270 523 270 241 c 5
 45 221 l 1
 45 554 322 800 635 800 c 0
 928 800 1090 624 1090 401 c 1
 977 405 l 1
EndSplineSet
EndChar

StartChar: dollar
Encoding: 36 36 80
Width: 725
Flags: HMW
LayerCount: 2
Back
SplineSet
197 103 m 21
 135 -5 l 13
 135 165 l 5
 197 103 l 21
135 295 m 5
 135 -5 l 5
 20 -5 l 5
 20 295 l 5
 135 295 l 5
125 200 m 5
 135 295 l 5
 135 196 216 111 340 111 c 4
 426 111 470 136 470 185 c 5
 695 230 l 5
 695 40 561 -20 380 -20 c 4
 174 -20 125 120 125 200 c 5
35 529 m 5
 256 578 l 5
 256 458 695 520 695 230 c 5
 470 185 l 5
 470 325 35 239 35 529 c 5
493 652 m 21
 555 750 l 13
 555 590 l 5
 493 652 l 21
555 475 m 5
 555 750 l 5
 670 750 l 5
 670 475 l 5
 555 475 l 5
575 564 m 5
 555 475 l 5
 555 594 444 634 360 634 c 4
 294 634 256 612 256 578 c 5
 35 529 l 5
 35 699 179 765 310 765 c 4
 476 765 575 654 575 564 c 5
EndSplineSet
Fore
SplineSet
55 529 m 1
 276 576 l 1
 276 456 715 520 715 230 c 1
 490 184 l 1
 490 324 55 239 55 529 c 1
350 835 m 1
 465 835 l 1
 395 -85 l 1
 280 -85 l 1
 350 835 l 1
200 130 m 1
 6 186 l 1
 6 274 71 312 120 312 c 0
 187 312 237 281 237 214 c 0
 237 168 200 153 200 130 c 1
528 620 m 1
 714 569 l 1
 714 491 669 453 600 453 c 0
 553 453 493 474 493 551 c 0
 493 597 528 603 528 620 c 1
6 186 m 1
 200 130 l 1
 200 101 236 86 380 86 c 4
 466 86 490 145 490 184 c 1
 715 230 l 1
 715 90 561 -15 380 -15 c 0
 184 -15 6 36 6 186 c 1
714 569 m 1
 528 620 l 1
 528 634 464 662 390 662 c 0
 324 662 276 625 276 576 c 1
 55 529 l 1
 55 689 219 765 390 765 c 0
 536 765 714 709 714 569 c 1
EndSplineSet
EndChar

StartChar: numbersign
Encoding: 35 35 81
Width: 660
Flags: HMW
LayerCount: 2
Fore
SplineSet
-10 320 m 5
 640 320 l 5
 640 215 l 1
 -10 215 l 1
 -10 320 l 5
20 550 m 1
 670 550 l 1
 670 445 l 1
 20 445 l 1
 20 550 l 1
430 805 m 1
 535 805 l 1
 435 -55 l 1
 330 -55 l 1
 430 805 l 1
210 805 m 1
 315 805 l 1
 215 -55 l 1
 110 -55 l 1
 210 805 l 1
EndSplineSet
EndChar

StartChar: slash
Encoding: 47 47 82
Width: 520
Flags: HMW
LayerCount: 2
Fore
SplineSet
356 780 m 1
 480 780 l 1
 169 -150 l 5
 40 -150 l 1
 356 780 l 1
EndSplineSet
EndChar

StartChar: percent
Encoding: 37 37 83
Width: 1060
Flags: HMW
LayerCount: 2
Fore
SplineSet
790 210 m 4
 790 108 796 70 825 70 c 4
 854 70 860 108 860 210 c 4
 860 312 854 350 825 350 c 4
 796 350 790 312 790 210 c 4
590 210 m 4
 590 353 682 440 825 440 c 4
 968 440 1060 353 1060 210 c 4
 1060 67 948 -20 825 -20 c 4
 682 -20 590 67 590 210 c 4
711 750 m 5
 855 750 l 5
 354 0 l 5
 205 0 l 5
 711 750 l 5
200 540 m 4
 200 438 206 400 235 400 c 4
 264 400 270 438 270 540 c 4
 270 642 264 680 235 680 c 4
 206 680 200 642 200 540 c 4
0 540 m 4
 0 683 92 770 235 770 c 4
 378 770 470 683 470 540 c 4
 470 397 358 310 235 310 c 4
 92 310 0 397 0 540 c 4
EndSplineSet
EndChar

StartChar: hyphen
Encoding: 45 45 85
Width: 460
Flags: HMW
LayerCount: 2
Fore
SplineSet
60 445 m 5
 400 445 l 5
 400 330 l 1
 60 330 l 1
 60 445 l 5
EndSplineSet
EndChar

StartChar: plus
Encoding: 43 43 87
Width: 530
Flags: HMW
LayerCount: 2
Fore
SplineSet
223 110 m 1
 223 520 l 1
 307 520 l 5
 307 110 l 5
 223 110 l 1
60 358 m 1
 470 358 l 1
 470 273 l 1
 60 273 l 1
 60 358 l 1
EndSplineSet
EndChar

StartChar: less
Encoding: 60 60 89
Width: 560
Flags: HMW
LayerCount: 2
Fore
SplineSet
60 355 m 1
 60 480 l 1
 500 650 l 1
 500 525 l 1
 60 355 l 1
60 295 m 5
 60 420 l 1
 500 250 l 1
 500 125 l 5
 60 295 l 5
EndSplineSet
EndChar

StartChar: backslash
Encoding: 92 92 91
Width: 520
Flags: HMW
LayerCount: 2
Fore
SplineSet
164 780 m 1
 480 -150 l 1
 351 -150 l 5
 40 780 l 1
 164 780 l 1
EndSplineSet
EndChar

StartChar: bracketleft
Encoding: 91 91 92
Width: 405
Flags: HMW
LayerCount: 2
Fore
SplineSet
375 -150 m 1
 55 -150 l 1
 55 -35 l 5
 375 -35 l 5
 375 -150 l 1
375 665 m 1
 55 665 l 1
 55 780 l 1
 375 780 l 1
 375 665 l 1
265 780 m 1
 265 -150 l 1
 55 -150 l 1
 55 780 l 1
 265 780 l 1
EndSplineSet
EndChar

StartChar: braceleft
Encoding: 123 123 93
Width: 372
VWidth: 1155
Flags: HMW
LayerCount: 2
Fore
SplineSet
342 780 m 1
 342 673 l 1
 280 673 238 670 238 617 c 4
 238 551 282 521 282 431 c 0
 282 348 129 300 55 260 c 1
 55 370 l 1
 85 380 115 385 115 426 c 0
 115 489 35 544 35 641 c 0
 35 750 147 780 342 780 c 1
342 -150 m 1
 147 -150 35 -119 35 -10 c 0
 35 87 115 142 115 205 c 0
 115 246 85 250 55 260 c 1
 55 370 l 1
 129 330 282 283 282 200 c 0
 282 110 238 80 238 14 c 4
 238 -39 280 -43 342 -43 c 1
 342 -150 l 1
EndSplineSet
EndChar

StartChar: bar
Encoding: 124 124 96
Width: 300
VWidth: 1155
Flags: HMW
LayerCount: 2
Fore
SplineSet
75 780 m 5
 225 780 l 1
 225 -250 l 1
 75 -250 l 5
 75 780 l 5
EndSplineSet
EndChar

StartChar: cent
Encoding: 162 162 98
Width: 625
VWidth: 1155
Flags: HMW
LayerCount: 2
Fore
SplineSet
375.946289062 615 m 5
 450.946289062 615 l 5
 270.946289062 -85 l 1
 195.946289062 -85 l 1
 375.946289062 615 l 5
EndSplineSet
Refer: 40 99 N 1 0 0 1 0 0 2
EndChar

StartChar: sterling
Encoding: 163 163 99
Width: 650
VWidth: 1155
Flags: HMW
LayerCount: 2
Fore
SplineSet
605 237 m 5
 605 92 544 -40 415 -40 c 4
 298 -40 263 25 190 25 c 4
 149 25 109 10 99 -20 c 5
 20 -20 l 5
 40 54 242 207 335 207 c 4
 395 207 405 163 451 163 c 4
 484 163 518 185 518 237 c 5
 605 237 l 5
473 395 m 5
 473 280 l 5
 -37 280 l 5
 -37 395 l 5
 473 395 l 5
435 647 m 5
 628 581 l 5
 628 503 573 455 514 455 c 4
 457 455 398 496 398 563 c 4
 398 609 435 624 435 647 c 5
628 581 m 5
 435 647 l 5
 435 674 406 683 362 683 c 4
 283 683 257 634 257 560 c 5
 26 550 l 5
 26 690 161 775 362 775 c 4
 544 775 628 673 628 581 c 5
26 550 m 5
 257 560 l 5
 257 461 333 395 333 320 c 4
 333 140 81 165 64 -20 c 5
 20 -20 l 5
 1 119 147 197 147 261 c 4
 147 375 26 435 26 550 c 5
EndSplineSet
EndChar

StartChar: section
Encoding: 167 167 101
Width: 594
VWidth: 1155
Flags: HMW
LayerCount: 2
Fore
SplineSet
568 142 m 5
 370 116 l 5
 370 232 27 212 27 375 c 4
 27 447 111 474 165 510 c 5
 269 500 l 5
 245 478 223 447 223 417 c 4
 223 286 568 324 568 142 c 5
178 82 m 5
 9 128 l 5
 9 206 74 239 113 239 c 4
 160 239 210 193 210 146 c 4
 210 110 178 105 178 82 c 5
9 128 m 5
 178 82 l 5
 178 56 230 56 282 56 c 4
 345 56 370 69 370 116 c 5
 568 142 l 5
 568 18 388 -20 293 -20 c 4
 185 -20 9 2 9 128 c 5
27 608 m 5
 225 634 l 5
 225 518 568 538 568 375 c 4
 568 323 524 276 470 240 c 5
 316 250 l 5
 340 272 362 303 362 333 c 4
 362 464 27 426 27 608 c 5
377 658 m 5
 556 612 l 5
 556 544 491 516 452 516 c 4
 415 516 355 547 355 594 c 4
 355 630 377 635 377 658 c 5
556 612 m 5
 377 658 l 5
 377 684 345 694 293 694 c 4
 240 694 225 671 225 634 c 5
 27 608 l 5
 27 712 187 770 282 770 c 4
 410 770 556 728 556 612 c 5
EndSplineSet
EndChar

StartChar: asciitilde
Encoding: 126 126 104
Width: 688
VWidth: 1155
Flags: HMW
LayerCount: 2
Fore
SplineSet
243 417 m 4
 210 417 187 395 187 343 c 1
 70 343 l 1
 70 458 140 540 249 540 c 0
 379 540 359 436 435 436 c 4
 468 436 501 458 501 510 c 1
 618 510 l 1
 618 395 548 313 439 313 c 4
 292 313 326 417 243 417 c 4
EndSplineSet
EndChar

StartChar: copyright
Encoding: 169 169 105
Width: 870
Flags: HMW
LayerCount: 2
Fore
SplineSet
40 375 m 0
 40 588 218 760 435 760 c 0
 652 760 830 588 830 375 c 0
 830 162 652 -10 435 -10 c 0
 218 -10 40 162 40 375 c 0
100 375 m 0
 100 190 250 39 435 39 c 0
 620 39 770 190 770 375 c 0
 770 560 620 711 435 711 c 0
 250 711 100 560 100 375 c 0
EndSplineSet
Refer: 14 67 S 0.6 0 0 0.6 162 150 2
EndChar

StartChar: registered
Encoding: 174 174 106
Width: 870
Flags: HMW
LayerCount: 2
Fore
SplineSet
40 375 m 0
 40 588 218 760 435 760 c 0
 652 760 830 588 830 375 c 0
 830 162 652 -10 435 -10 c 0
 218 -10 40 162 40 375 c 0
100 375 m 0
 100 190 250 39 435 39 c 0
 620 39 770 190 770 375 c 0
 770 560 620 711 435 711 c 0
 250 711 100 560 100 375 c 0
EndSplineSet
Refer: 29 82 S 0.6 0 0 0.6 178 148 2
EndChar

StartChar: guillemotleft
Encoding: 171 171 108
Width: 695
Flags: HMW
LayerCount: 2
Fore
SplineSet
500.900390625 387.5 m 5
 675 190 l 1
 635 135 l 1
 295 375 l 1
 295 400 l 1
 635 640 l 1
 675 585 l 1
 500.900390625 387.5 l 5
220.900390625 387.5 m 1
 395 190 l 1
 355 135 l 1
 15 375 l 1
 15 400 l 1
 355 640 l 1
 395 585 l 1
 220.900390625 387.5 l 1
EndSplineSet
EndChar

StartChar: mu
Encoding: 181 181 111
Width: 775
VWidth: 1155
Flags: HMW
LayerCount: 2
Fore
SplineSet
281 -93 m 4
 344 -93 367 -127 367 -171 c 4
 367 -216 314 -260 256 -260 c 1
 207 -132 l 1
 227 -132 246 -93 281 -93 c 4
110 -122 m 1
 110 321 l 1
 170 321 l 1
 170 -99 l 1
 110 -122 l 1
110 -122 m 1
 170 -99 l 1
 170 -136 194 -132 207 -132 c 1
 256 -260 l 1
 194 -260 110 -211 110 -122 c 1
EndSplineSet
Refer: 58 117 N 1 0 0 1 0 0 2
EndChar

StartChar: asciicircum
Encoding: 94 94 113
Width: 545
Flags: HMW
LayerCount: 2
Fore
SplineSet
325 770 m 1
 305 663 l 5
 240 663 l 5
 220 770 l 1
 325 770 l 1
220 670 m 5
 325 770 l 1
 505 580 l 1
 440 550 l 1
 220 670 l 5
220 770 m 1
 325 670 l 5
 105 550 l 1
 40 580 l 1
 220 770 l 1
EndSplineSet
EndChar

StartChar: degree
Encoding: 176 176 115
Width: 320
Flags: HMW
LayerCount: 2
Fore
SplineSet
105 680 m 0
 105 650 130 625 160 625 c 0
 190 625 215 650 215 680 c 0
 215 710 190 735 160 735 c 0
 130 735 105 710 105 680 c 0
40 680 m 0
 40 746 94 800 160 800 c 0
 226 800 280 746 280 680 c 0
 280 614 226 560 160 560 c 0
 94 560 40 614 40 680 c 0
EndSplineSet
EndChar

StartChar: onequarter
Encoding: 188 188 119
Width: 1000
Flags: HMW
LayerCount: 2
Fore
SplineSet
681 750 m 1
 765 750 l 1
 324 0 l 1
 235 0 l 5
 681 750 l 1
EndSplineSet
Refer: 6 52 N 0.6 0 0 0.6 535 32 2
Refer: 3 49 N 0.6 0 0 0.6 107 456 2
EndChar

StartChar: onehalf
Encoding: 189 189 120
Width: 1000
Flags: HMW
LayerCount: 2
Fore
SplineSet
681 750 m 1
 765 750 l 1
 324 0 l 5
 235 0 l 1
 681 750 l 1
EndSplineSet
Refer: 4 50 N 0.6 0 0 0.6 576 17 2
Refer: 3 49 N 0.6 0 0 0.6 107 456 2
EndChar

StartChar: threequarters
Encoding: 190 190 121
Width: 1000
Flags: HMW
LayerCount: 2
Fore
SplineSet
681 750 m 1
 765 750 l 1
 324 0 l 5
 235 0 l 1
 681 750 l 1
EndSplineSet
Refer: 6 52 N 0.6 0 0 0.6 535 32 2
Refer: 5 51 N 0.6 0 0 0.6 65 457 2
EndChar

StartChar: grave
Encoding: 96 96 123
Width: 395
Flags: HMW
LayerCount: 2
Fore
SplineSet
230 670 m 6
 171.814453125 662.904296875 125 696 125 755 c 4
 125 814 178.466079846 868.602430879 240 838 c 6
 427 745 l 5
 425 685 l 5
 230 670 l 6
EndSplineSet
EndChar

StartChar: acute
Encoding: 180 180 124
Width: 395
Flags: HMW
LayerCount: 2
Fore
SplineSet
145 690 m 2
 -50 705 l 1
 -52 765 l 1
 135 858 l 2
 196.534179688 888.602539062 250 834 250 775 c 0
 250 716 203.185546875 682.904296875 145 690 c 2
EndSplineSet
EndChar

StartChar: cedilla
Encoding: 184 184 128
Width: 550
Flags: HMW
LayerCount: 2
Fore
SplineSet
157 -99.01171875 m 1
 267 40.98828125 l 1
 377 40.98828125 l 1
 267 -99.01171875 l 1
 157 -99.01171875 l 1
157 -99.01171875 m 1
 217 -50 l 1
 328 -50 410 -90 410 -140 c 1
 309 -150 l 1
 309 -116.76171875 282 -99.01171875 157 -99.01171875 c 1
181 -178 m 5
 270 -188 309 -174 309 -150 c 1
 410 -140 l 1
 410 -190 352 -250 181 -240 c 1
 181 -178 l 5
EndSplineSet
EndChar

StartChar: AE
Encoding: 198 198 526
Width: 1197
Flags: HMW
LayerCount: 2
Fore
SplineSet
290 295 m 5
 640 295 l 5
 640 190 l 5
 290 190 l 5
 290 295 l 5
0 135 m 5
 380 135 l 5
 380 0 l 5
 0 0 l 5
 0 135 l 5
646 750 m 5
 775 750 l 5
 169 0 l 5
 35 0 l 5
 646 750 l 5
EndSplineSet
Refer: 16 69 S 1 0 0 1 460 0 2
EndChar

StartChar: ae
Encoding: 230 230 529
Width: 959
VWidth: 1155
Flags: HMW
LayerCount: 2
Fore
SplineSet
344 284 m 1
 364 199 l 1
 298 199 252 178 252 141 c 0
 252 114 265 99 290 99 c 0
 338 99 356 123 356 194 c 1
 465 174 l 5
 465 50 331 -15 210 -15 c 0
 101 -15 15 24 15 118 c 0
 15 242 132 284 344 284 c 1
566 352 m 1
 566 136 l 1
 356 78 l 1
 356 372 l 1
 566 352 l 1
55 383 m 1
 55 480 187 535 328 535 c 0
 478 535 566 493 566 352 c 1
 356 362 l 1
 356 429 323 454 273 454 c 0
 259 454 247 452 247 439 c 1
 55 383 l 1
344 284 m 1
 458 284 l 1
 458 199 l 1
 364 199 l 1
 344 284 l 1
269 384 m 0
 269 310 218 290 164 290 c 0
 98 290 55 329 55 383 c 1
 247 439 l 1
 247 426 269 422 269 384 c 0
415 250 m 1
 566 265 l 1
 566 171 576 83 665 83 c 0
 718 83 747 113 772 173 c 1
 908 173 l 1
 882 36 774 -20 643 -20 c 0
 442 -20 415 110 415 250 c 1
502 329 m 1
 816 329 l 1
 816 226 l 1
 502 226 l 1
 502 329 l 1
919 226 m 1
 709 226 l 1
 709 319 723 441 649 441 c 0
 570 441 566 354 566 250 c 1
 415 250 l 1
 415 410 449 540 650 540 c 0
 899 540 919 355 919 226 c 1
EndSplineSet
EndChar

StartChar: perthousand
Encoding: 8240 8240 537
Width: 1550
Flags: HMW
LayerCount: 2
Fore
SplineSet
1280 210 m 4
 1280 108 1286 70 1315 70 c 4
 1344 70 1350 108 1350 210 c 4
 1350 312 1344 350 1315 350 c 4
 1286 350 1280 312 1280 210 c 4
1080 210 m 4
 1080 353 1172 440 1315 440 c 4
 1458 440 1550 353 1550 210 c 4
 1550 67 1438 -20 1315 -20 c 4
 1172 -20 1080 67 1080 210 c 4
790 210 m 4
 790 108 796 70 825 70 c 4
 854 70 860 108 860 210 c 4
 860 312 854 350 825 350 c 4
 796 350 790 312 790 210 c 4
590 210 m 4
 590 353 682 440 825 440 c 4
 968 440 1060 353 1060 210 c 4
 1060 67 948 -20 825 -20 c 4
 682 -20 590 67 590 210 c 4
711 750 m 5
 855 750 l 5
 354 0 l 5
 205 0 l 5
 711 750 l 5
200 540 m 4
 200 438 206 400 235 400 c 4
 264 400 270 438 270 540 c 4
 270 642 264 680 235 680 c 4
 206 680 200 642 200 540 c 4
0 540 m 4
 0 683 92 770 235 770 c 4
 378 770 470 683 470 540 c 4
 470 397 358 310 235 310 c 4
 92 310 0 397 0 540 c 4
EndSplineSet
EndChar

StartChar: uni2031
Encoding: 8241 8241 538
Width: 2025
Flags: HMW
LayerCount: 2
Fore
SplineSet
1755 200 m 0
 1755 98 1761 60 1790 60 c 0
 1819 60 1825 98 1825 200 c 0
 1825 302 1819 340 1790 340 c 0
 1761 340 1755 302 1755 200 c 0
1555 200 m 0
 1555 343 1647 430 1790 430 c 0
 1933 430 2025 343 2025 200 c 0
 2025 57 1913 -30 1790 -30 c 0
 1647 -30 1555 57 1555 200 c 0
1275 200 m 0
 1275 98 1281 60 1310 60 c 0
 1339 60 1345 98 1345 200 c 0
 1345 302 1339 340 1310 340 c 0
 1281 340 1275 302 1275 200 c 0
1075 200 m 0
 1075 343 1167 430 1310 430 c 0
 1453 430 1545 343 1545 200 c 0
 1545 57 1433 -30 1310 -30 c 0
 1167 -30 1075 57 1075 200 c 0
790 210 m 0
 790 108 796 70 825 70 c 0
 854 70 860 108 860 210 c 0
 860 312 854 350 825 350 c 0
 796 350 790 312 790 210 c 0
590 210 m 0
 590 353 682 440 825 440 c 0
 968 440 1060 353 1060 210 c 0
 1060 67 948 -20 825 -20 c 0
 682 -20 590 67 590 210 c 0
711 750 m 1
 855 750 l 1
 354 0 l 1
 205 0 l 1
 711 750 l 1
200 540 m 0
 200 438 206 400 235 400 c 0
 264 400 270 438 270 540 c 0
 270 642 264 680 235 680 c 0
 206 680 200 642 200 540 c 0
0 540 m 0
 0 683 92 770 235 770 c 0
 378 770 470 683 470 540 c 0
 470 397 358 310 235 310 c 0
 92 310 0 397 0 540 c 0
EndSplineSet
EndChar

StartChar: uniFB00
Encoding: 64256 64256 542
Width: 865
VWidth: 1155
Flags: HMW
LayerCount: 2
Back
SplineSet
960 664 m 5
 793 709 l 5
 793 717 781 725 759 725 c 4
 679 725 660 677 660 550 c 5
 490 572 l 5
 490 703 587 800 737 800 c 4
 868 800 960 751 960 664 c 5
763 646 m 4
 763 693 793 698 793 709 c 5
 960 664 l 5
 960 594 915 553 863 553 c 4
 801 553 763 591 763 646 c 4
420 85 m 5
 490 85 l 5
 490 0 l 5
 420 0 l 5
 420 85 l 5
660 85 m 5
 780 85 l 5
 780 0 l 5
 660 0 l 5
 660 85 l 5
490 572 m 5
 660 550 l 5
 660 0 l 5
 490 0 l 5
 490 572 l 5
600 644 m 5
 433 689 l 5
 433 697 411 705 389 705 c 4
 309 705 280 637 280 550 c 5
 110 572 l 5
 110 703 217 780 367 780 c 4
 498 780 600 731 600 644 c 5
403 626 m 4
 403 673 433 678 433 689 c 5
 600 644 l 5
 600 574 555 553 503 553 c 4
 441 553 403 571 403 626 c 4
20 85 m 5
 110 85 l 5
 110 0 l 5
 20 0 l 5
 20 85 l 5
280 85 m 5
 380 85 l 5
 380 0 l 5
 280 0 l 5
 280 85 l 5
20 520 m 5
 800 520 l 5
 800 435 l 5
 20 435 l 5
 20 520 l 5
110 572 m 5
 280 550 l 5
 280 0 l 5
 110 0 l 5
 110 572 l 5
EndSplineSet
Fore
SplineSet
640 634 m 5
 439 685 l 5
 439 692 425 693 415 693 c 4
 375 693 320 657 320 530 c 5
 110 552 l 5
 110 663 207 780 407 780 c 4
 568 780 640 711 640 634 c 5
403 616 m 4
 403 663 439 674 439 685 c 5
 640 634 l 5
 640 554 585 533 523 533 c 4
 451 533 403 561 403 616 c 4
20 105 m 5
 110 105 l 5
 110 0 l 5
 20 0 l 5
 20 105 l 5
320 105 m 5
 390 105 l 5
 390 0 l 5
 320 0 l 5
 320 105 l 5
20 520 m 5
 840 520 l 5
 840 415 l 5
 20 415 l 5
 20 520 l 5
110 552 m 5
 320 530 l 5
 320 0 l 5
 110 0 l 5
 110 552 l 5
1040 654 m 1
 839 705 l 1
 839 712 825 713 815 713 c 0
 775 713 720 677 720 550 c 1
 510 572 l 1
 510 683 607 800 807 800 c 0
 968 800 1040 731 1040 654 c 1
803 636 m 0
 803 683 839 694 839 705 c 1
 1040 654 l 1
 1040 574 985 543 923 543 c 0
 851 543 803 581 803 636 c 0
430 105 m 5
 510 105 l 5
 510 0 l 5
 430 0 l 5
 430 105 l 5
720 105 m 1
 840 105 l 1
 840 0 l 1
 720 0 l 1
 720 105 l 1
510 572 m 1
 720 550 l 1
 720 0 l 1
 510 0 l 1
 510 572 l 1
EndSplineSet
LCarets2: 1 0
Ligature2: "Not your mama's contextual ligatures" f f
EndChar

StartChar: uniFB01
Encoding: 64257 64257 543
Width: 815
VWidth: 1155
Flags: HMW
LayerCount: 2
Back
SplineSet
410 85 m 5
 490 85 l 5
 490 0 l 5
 410 0 l 5
 410 85 l 5
660 85 m 5
 750 85 l 5
 750 0 l 5
 660 0 l 5
 660 85 l 5
490 520 m 5
 660 520 l 5
 660 0 l 5
 490 0 l 5
 490 520 l 5
620 664 m 5
 445 712 l 5
 445 720 421 725 399 725 c 4
 319 725 280 677 280 550 c 5
 110 572 l 5
 110 703 217 800 387 800 c 4
 518 800 620 761 620 664 c 5
423 656 m 4
 423 693 445 705 445 712 c 5
 620 664 l 5
 620 604 575 563 523 563 c 4
 461 563 423 601 423 656 c 4
20 85 m 5
 110 85 l 5
 110 0 l 5
 20 0 l 5
 20 85 l 5
280 85 m 5
 390 85 l 5
 390 0 l 5
 280 0 l 5
 280 85 l 5
20 520 m 5
 490 520 l 5
 490 435 l 5
 20 435 l 5
 20 520 l 5
110 572 m 5
 280 550 l 5
 280 0 l 5
 110 0 l 5
 110 572 l 5
EndSplineSet
Fore
SplineSet
670 654 m 5
 469 705 l 5
 469 712 450 713 440 713 c 4
 390 713 320 677 320 550 c 5
 110 572 l 5
 110 683 227 800 427 800 c 4
 588 800 670 731 670 654 c 5
433 636 m 4
 433 683 469 694 469 705 c 5
 670 654 l 5
 670 594 615 553 553 553 c 4
 481 553 433 581 433 636 c 4
20 105 m 5
 110 105 l 5
 110 0 l 5
 20 0 l 5
 20 105 l 5
320 105 m 5
 395 105 l 5
 395 0 l 5
 320 0 l 5
 320 105 l 5
20 520 m 5
 510 520 l 5
 510 415 l 5
 20 415 l 5
 20 520 l 5
110 572 m 5
 320 550 l 5
 320 0 l 5
 110 0 l 5
 110 572 l 5
425 105 m 5
 510 105 l 5
 510 0 l 5
 425 0 l 5
 425 105 l 5
720 105 m 5
 810 105 l 5
 810 0 l 5
 720 0 l 5
 720 105 l 5
510 520 m 5
 720 520 l 5
 720 0 l 5
 510 0 l 5
 510 520 l 5
EndSplineSet
LCarets2: 1 0
Ligature2: "Not your mama's contextual ligatures" f i
EndChar

StartChar: uniFB02
Encoding: 64258 64258 544
Width: 830
VWidth: 1155
Flags: HMW
LayerCount: 2
Back
SplineSet
610 644 m 5
 443 689 l 5
 443 697 411 705 389 705 c 4
 309 705 280 637 280 550 c 5
 110 572 l 5
 110 703 217 780 367 780 c 4
 498 780 610 731 610 644 c 5
413 626 m 4
 413 673 443 678 443 689 c 5
 610 644 l 5
 610 574 565 533 513 533 c 4
 451 533 413 571 413 626 c 4
20 85 m 5
 110 85 l 5
 110 0 l 5
 20 0 l 5
 20 85 l 5
280 85 m 5
 380 85 l 5
 380 0 l 5
 280 0 l 5
 280 85 l 5
20 520 m 5
 420 520 l 5
 420 435 l 5
 20 435 l 5
 20 520 l 5
110 572 m 5
 280 550 l 5
 280 0 l 5
 110 0 l 5
 110 572 l 5
430 85 m 5
 520 85 l 5
 520 0 l 5
 430 0 l 5
 430 85 l 5
690 85 m 5
 780 85 l 5
 780 0 l 5
 690 0 l 5
 690 85 l 5
520 700 m 5
 690 800 l 5
 690 0 l 5
 520 0 l 5
 520 700 l 5
EndSplineSet
Fore
SplineSet
435 105 m 5
 525 105 l 5
 525 0 l 5
 435 0 l 5
 435 105 l 5
735 105 m 5
 825 105 l 5
 825 0 l 5
 735 0 l 5
 735 105 l 5
525 690 m 5
 735 800 l 5
 735 0 l 5
 525 0 l 5
 525 690 l 5
670 654 m 5
 469 705 l 5
 469 712 450 713 440 713 c 4
 390 713 320 677 320 550 c 5
 110 572 l 5
 110 683 227 800 427 800 c 4
 588 800 670 731 670 654 c 5
433 636 m 4
 433 683 469 694 469 705 c 5
 670 654 l 5
 670 594 615 543 553 543 c 4
 481 543 433 581 433 636 c 4
20 105 m 5
 110 105 l 5
 110 0 l 5
 20 0 l 5
 20 105 l 5
320 105 m 5
 395 105 l 5
 395 0 l 5
 320 0 l 5
 320 105 l 5
20 520 m 5
 450 520 l 5
 450 415 l 5
 20 415 l 5
 20 520 l 5
110 572 m 5
 320 550 l 5
 320 0 l 5
 110 0 l 5
 110 572 l 5
EndSplineSet
LCarets2: 1 0
Ligature2: "Not your mama's contextual ligatures" f l
EndChar

StartChar: uniFB03
Encoding: 64259 64259 545
Width: 1215
VWidth: 1155
Flags: HMW
LayerCount: 2
Back
SplineSet
600 644 m 5
 433 689 l 5
 433 697 411 705 389 705 c 4
 309 705 280 637 280 550 c 5
 110 572 l 5
 110 703 217 780 367 780 c 4
 498 780 600 731 600 644 c 5
403 626 m 4
 403 673 433 678 433 689 c 5
 600 644 l 5
 600 574 555 553 503 553 c 4
 441 553 403 571 403 626 c 4
20 85 m 5
 110 85 l 5
 110 0 l 5
 20 0 l 5
 20 85 l 5
280 85 m 5
 380 85 l 5
 380 0 l 5
 280 0 l 5
 280 85 l 5
20 520 m 5
 890 520 l 5
 890 435 l 5
 20 435 l 5
 20 520 l 5
110 572 m 5
 280 550 l 5
 280 0 l 5
 110 0 l 5
 110 572 l 5
810 85 m 5
 890 85 l 5
 890 0 l 5
 810 0 l 5
 810 85 l 5
1060 85 m 5
 1150 85 l 5
 1150 0 l 5
 1060 0 l 5
 1060 85 l 5
890 520 m 5
 1060 520 l 5
 1060 0 l 5
 890 0 l 5
 890 520 l 5
1020 664 m 5
 845 712 l 5
 845 720 821 725 799 725 c 4
 719 725 680 677 680 550 c 5
 510 572 l 5
 510 703 617 800 787 800 c 4
 918 800 1020 761 1020 664 c 5
823 656 m 4
 823 693 845 705 845 712 c 5
 1020 664 l 5
 1020 604 975 563 923 563 c 4
 861 563 823 601 823 656 c 4
420 85 m 5
 510 85 l 5
 510 0 l 5
 420 0 l 5
 420 85 l 5
680 85 m 5
 790 85 l 5
 790 0 l 5
 680 0 l 5
 680 85 l 5
510 572 m 5
 680 550 l 5
 680 0 l 5
 510 0 l 5
 510 572 l 5
EndSplineSet
Fore
SplineSet
640 634 m 1
 439 685 l 1
 439 692 425 693 415 693 c 0
 375 693 320 657 320 530 c 1
 110 552 l 1
 110 663 207 780 407 780 c 0
 568 780 640 711 640 634 c 1
403 616 m 0
 403 663 439 674 439 685 c 1
 640 634 l 1
 640 554 585 533 523 533 c 0
 451 533 403 561 403 616 c 0
20 105 m 1
 110 105 l 1
 110 0 l 1
 20 0 l 1
 20 105 l 1
320 105 m 1
 390 105 l 1
 390 0 l 1
 320 0 l 1
 320 105 l 1
20 520 m 1
 910 520 l 5
 910 415 l 5
 20 415 l 1
 20 520 l 1
110 552 m 1
 320 530 l 1
 320 0 l 1
 110 0 l 1
 110 552 l 1
430 105 m 1
 510 105 l 1
 510 0 l 1
 430 0 l 1
 430 105 l 1
1070 654 m 1
 869 705 l 1
 869 712 850 713 840 713 c 0
 790 713 720 677 720 550 c 1
 510 572 l 1
 510 683 627 800 827 800 c 0
 988 800 1070 731 1070 654 c 1
833 636 m 0
 833 683 869 694 869 705 c 1
 1070 654 l 1
 1070 594 1015 553 953 553 c 0
 881 553 833 581 833 636 c 0
720 105 m 1
 795 105 l 1
 795 0 l 1
 720 0 l 1
 720 105 l 1
510 572 m 1
 720 550 l 1
 720 0 l 1
 510 0 l 1
 510 572 l 1
825 105 m 1
 910 105 l 1
 910 0 l 1
 825 0 l 1
 825 105 l 1
1120 105 m 1
 1210 105 l 1
 1210 0 l 1
 1120 0 l 1
 1120 105 l 1
910 520 m 1
 1120 520 l 1
 1120 0 l 1
 910 0 l 1
 910 520 l 1
EndSplineSet
LCarets2: 2 0 0
Ligature2: "Not your mama's contextual ligatures" f f i
EndChar

StartChar: uniFB04
Encoding: 64260 64260 546
Width: 1230
VWidth: 1155
Flags: HMW
LayerCount: 2
Back
SplineSet
600 644 m 5
 433 689 l 5
 433 697 411 705 389 705 c 4
 309 705 280 637 280 550 c 5
 110 572 l 5
 110 703 217 780 367 780 c 4
 498 780 600 731 600 644 c 5
403 626 m 4
 403 673 433 678 433 689 c 5
 600 644 l 5
 600 574 555 553 503 553 c 4
 441 553 403 571 403 626 c 4
20 85 m 5
 110 85 l 5
 110 0 l 5
 20 0 l 5
 20 85 l 5
280 85 m 5
 380 85 l 5
 380 0 l 5
 280 0 l 5
 280 85 l 5
20 520 m 5
 800 520 l 5
 800 435 l 5
 20 435 l 5
 20 520 l 5
110 572 m 5
 280 550 l 5
 280 0 l 5
 110 0 l 5
 110 572 l 5
1010 644 m 5
 843 689 l 5
 843 697 811 705 789 705 c 4
 709 705 680 637 680 550 c 5
 510 572 l 5
 510 703 617 780 767 780 c 4
 898 780 1010 731 1010 644 c 5
813 626 m 4
 813 673 843 678 843 689 c 5
 1010 644 l 5
 1010 574 965 533 913 533 c 4
 851 533 813 571 813 626 c 4
420 85 m 5
 510 85 l 5
 510 0 l 5
 420 0 l 5
 420 85 l 5
680 85 m 5
 780 85 l 5
 780 0 l 5
 680 0 l 5
 680 85 l 5
420 520 m 5
 820 520 l 5
 820 435 l 5
 420 435 l 5
 420 520 l 5
510 572 m 5
 680 550 l 5
 680 0 l 5
 510 0 l 5
 510 572 l 5
830 85 m 5
 920 85 l 5
 920 0 l 5
 830 0 l 5
 830 85 l 5
1090 85 m 5
 1180 85 l 5
 1180 0 l 5
 1090 0 l 5
 1090 85 l 5
920 700 m 5
 1090 800 l 5
 1090 0 l 5
 920 0 l 5
 920 700 l 5
EndSplineSet
Fore
SplineSet
640 634 m 1
 439 685 l 1
 439 692 425 693 415 693 c 0
 375 693 320 657 320 530 c 1
 110 552 l 1
 110 663 207 780 407 780 c 0
 568 780 640 711 640 634 c 1
403 616 m 0
 403 663 439 674 439 685 c 1
 640 634 l 1
 640 554 585 533 523 533 c 0
 451 533 403 561 403 616 c 0
20 105 m 1
 110 105 l 1
 110 0 l 1
 20 0 l 1
 20 105 l 1
320 105 m 1
 390 105 l 1
 390 0 l 1
 320 0 l 1
 320 105 l 1
20 520 m 1
 820 520 l 5
 820 415 l 5
 20 415 l 1
 20 520 l 1
110 552 m 1
 320 530 l 1
 320 0 l 1
 110 0 l 1
 110 552 l 1
430 105 m 1
 510 105 l 1
 510 0 l 1
 430 0 l 1
 430 105 l 1
835 105 m 1
 925 105 l 1
 925 0 l 1
 835 0 l 1
 835 105 l 1
1135 105 m 1
 1225 105 l 1
 1225 0 l 1
 1135 0 l 1
 1135 105 l 1
925 690 m 1
 1135 800 l 1
 1135 0 l 1
 925 0 l 1
 925 690 l 1
1070 654 m 1
 869 705 l 1
 869 712 850 713 840 713 c 0
 790 713 720 677 720 550 c 1
 510 572 l 1
 510 683 627 800 827 800 c 0
 988 800 1070 731 1070 654 c 1
833 636 m 0
 833 683 869 694 869 705 c 1
 1070 654 l 1
 1070 594 1015 543 953 543 c 0
 881 543 833 581 833 636 c 0
720 105 m 1
 795 105 l 1
 795 0 l 1
 720 0 l 1
 720 105 l 1
510 572 m 1
 720 550 l 1
 720 0 l 1
 510 0 l 1
 510 572 l 1
EndSplineSet
LCarets2: 2 0 0
Ligature2: "Not your mama's contextual ligatures" f f l
EndChar

StartChar: uniFFFD
Encoding: 65533 65533 547
Width: 880
Flags: HMW
LayerCount: 2
Back
SplineSet
485 440 m 5
 541 440 575 476 575 525 c 4
 575 574 541 615 485 615 c 5
 485 750 l 5
 716 750 815 675 815 555 c 4
 815 425 736 364 485 364 c 5
 485 440 l 5
375 750 m 5
 485 750 l 5
 485 615 l 5
 375 615 l 5
 375 750 l 5
375 440 m 5
 545 440 l 5
 545 310 l 5
 375 310 l 5
 375 440 l 5
30 135 m 5
 140 135 l 5
 140 0 l 5
 30 0 l 5
 30 135 l 5
30 750 m 5
 140 750 l 5
 140 615 l 5
 30 615 l 5
 30 750 l 5
140 750 m 5
 375 750 l 5
 375 0 l 5
 140 0 l 5
 140 750 l 5
375 135 m 5
 485 135 l 5
 485 0 l 5
 375 0 l 5
 375 135 l 5
963 130 m 5
 911 44 846 -20 730 -20 c 4
 467.03125 -20 611.256835938 310 435 310 c 5
 545 386 l 5
 858.294921875 386 741.228515625 154 814 154 c 4
 835 154 857 177 869 203 c 5
 963 130 l 5
EndSplineSet
Fore
SplineSet
140 750 m 1
 375 750 l 1
 375 0 l 1
 140 0 l 1
 140 750 l 1
485 440 m 1
 541 440 575 476 575 525 c 0
 575 574 541 615 485 615 c 1
 485 750 l 1
 706 750 815 685 815 545 c 0
 815 415 716 364 485 364 c 1
 485 440 l 1
375 750 m 1
 485 750 l 1
 485 615 l 1
 375 615 l 1
 375 750 l 1
375 440 m 1
 505 440 l 1
 505 310 l 1
 375 310 l 1
 375 440 l 1
30 135 m 1
 140 135 l 1
 140 0 l 1
 30 0 l 1
 30 135 l 1
30 750 m 1
 140 750 l 1
 140 615 l 1
 30 615 l 1
 30 750 l 1
375 135 m 1
 485 135 l 1
 485 0 l 1
 375 0 l 1
 375 135 l 1
870 0 m 25
 725 0 l 6
 422.03125 0 646.256835938 310 410 310 c 1
 480 381 l 5
 893.294921875 381 698.228515625 135 811 135 c 6
 870 135 l 1
 870 0 l 25
EndSplineSet
EndChar
